<?xml version="1.0" encoding="utf-8" standalone="no"?>
 <!DOCTYPE svg PUBLIC "-//W3C//DTD SVG 1.1//EN"
   "http://www.w3.org/Graphics/SVG/1.1/DTD/svg11.dtd">
 <svg xmlns:xlink="http://www.w3.org/1999/xlink" width="382.603125pt" height="273.63625pt" viewBox="0 0 382.603125 273.63625" xmlns="http://www.w3.org/2000/svg" version="1.1">
  <metadata>
   <rdf:RDF xmlns:dc="http://purl.org/dc/elements/1.1/" xmlns:cc="http://creativecommons.org/ns#" xmlns:rdf="http://www.w3.org/1999/02/22-rdf-syntax-ns#">
    <cc:Work>
     <dc:type rdf:resource="http://purl.org/dc/dcmitype/StillImage"/>
     <dc:date>2022-09-01T13:04:27.622950</dc:date>
     <dc:format>image/svg+xml</dc:format>
     <dc:creator>
      <cc:Agent>
       <dc:title>Matplotlib v3.5.2, https://matplotlib.org/</dc:title>
      </cc:Agent>
     </dc:creator>
    </cc:Work>
   </rdf:RDF>
  </metadata>
  <defs>
   <style type="text/css">*{stroke-linejoin: round; stroke-linecap: butt; fill: #c9d1d9;}</style>
  </defs>
  <g id="figure_1">
   <g id="patch_1">
    <path d="M 0 273.63625 
 L 382.603125 273.63625 
 L 382.603125 0 
 L 0 0 
 L 0 273.63625 
 z
 " style="fill: none"/>
   </g>
   <g id="axes_1">
    <g id="patch_2">
     <path d="M 34.240625 249.758125 
 L 369.040625 249.758125 
 L 369.040625 32.318125 
 L 34.240625 32.318125 
 z
 " style="fill: #161b22"/>
    </g>
    <g id="matplotlib.axis_1">
     <g id="xtick_1">
      <g id="line2d_1">
       <path d="M 50.179686 249.758125 
 L 50.179686 32.318125 
 " clip-path="url(#pd49cd94d5a)" style="fill: none; stroke-dasharray: 2.96,1.28; stroke-dashoffset: 0; stroke: #b0b0b0; stroke-opacity: 0.5; stroke-width: 0.8"/>
      </g>
      <g id="line2d_2">
       <defs>
        <path id="m509231707e" d="M 0 0 
 L 0 3.5 
 " style="stroke: #30363d; stroke-width: 0.8"/>
       </defs>
       <g>
        <use xlink:href="#m509231707e" x="50.179686" y="249.758125" style="stroke: #30363d; stroke-width: 0.8"/>
       </g>
      </g>
      <g id="text_1">
       <!-- 10 -->
       <g transform="translate(43.817186 264.356562)scale(0.1 -0.1)">
        <defs>
         <path id="DejaVuSans-31" d="M 794 531 
 L 1825 531 
 L 1825 4091 
 L 703 3866 
 L 703 4441 
 L 1819 4666 
 L 2450 4666 
 L 2450 531 
 L 3481 531 
 L 3481 0 
 L 794 0 
 L 794 531 
 z
 " transform="scale(0.015625)"/>
         <path id="DejaVuSans-30" d="M 2034 4250 
 Q 1547 4250 1301 3770 
 Q 1056 3291 1056 2328 
 Q 1056 1369 1301 889 
 Q 1547 409 2034 409 
 Q 2525 409 2770 889 
 Q 3016 1369 3016 2328 
 Q 3016 3291 2770 3770 
 Q 2525 4250 2034 4250 
 z
 M 2034 4750 
 Q 2819 4750 3233 4129 
 Q 3647 3509 3647 2328 
 Q 3647 1150 3233 529 
 Q 2819 -91 2034 -91 
 Q 1250 -91 836 529 
 Q 422 1150 422 2328 
 Q 422 3509 836 4129 
 Q 1250 4750 2034 4750 
 z
 " transform="scale(0.015625)"/>
        </defs>
        <use xlink:href="#DejaVuSans-31"/>
        <use xlink:href="#DejaVuSans-30" x="63.623047"/>
       </g>
      </g>
     </g>
     <g id="xtick_2">
      <g id="line2d_3">
       <path d="M 129.894921 249.758125 
 L 129.894921 32.318125 
 " clip-path="url(#pd49cd94d5a)" style="fill: none; stroke-dasharray: 2.96,1.28; stroke-dashoffset: 0; stroke: #b0b0b0; stroke-opacity: 0.5; stroke-width: 0.8"/>
      </g>
      <g id="line2d_4">
       <g>
        <use xlink:href="#m509231707e" x="129.894921" y="249.758125" style="stroke: #30363d; stroke-width: 0.8"/>
       </g>
      </g>
      <g id="text_2">
       <!-- 20 -->
       <g transform="translate(123.532421 264.356562)scale(0.1 -0.1)">
        <defs>
         <path id="DejaVuSans-32" d="M 1228 531 
 L 3431 531 
 L 3431 0 
 L 469 0 
 L 469 531 
 Q 828 903 1448 1529 
 Q 2069 2156 2228 2338 
 Q 2531 2678 2651 2914 
 Q 2772 3150 2772 3378 
 Q 2772 3750 2511 3984 
 Q 2250 4219 1831 4219 
 Q 1534 4219 1204 4116 
 Q 875 4013 500 3803 
 L 500 4441 
 Q 881 4594 1212 4672 
 Q 1544 4750 1819 4750 
 Q 2544 4750 2975 4387 
 Q 3406 4025 3406 3419 
 Q 3406 3131 3298 2873 
 Q 3191 2616 2906 2266 
 Q 2828 2175 2409 1742 
 Q 1991 1309 1228 531 
 z
 " transform="scale(0.015625)"/>
        </defs>
        <use xlink:href="#DejaVuSans-32"/>
        <use xlink:href="#DejaVuSans-30" x="63.623047"/>
       </g>
      </g>
     </g>
     <g id="xtick_3">
      <g id="line2d_5">
       <path d="M 209.610156 249.758125 
 L 209.610156 32.318125 
 " clip-path="url(#pd49cd94d5a)" style="fill: none; stroke-dasharray: 2.96,1.28; stroke-dashoffset: 0; stroke: #b0b0b0; stroke-opacity: 0.5; stroke-width: 0.8"/>
      </g>
      <g id="line2d_6">
       <g>
        <use xlink:href="#m509231707e" x="209.610156" y="249.758125" style="stroke: #30363d; stroke-width: 0.8"/>
       </g>
      </g>
      <g id="text_3">
       <!-- 30 -->
       <g transform="translate(203.247656 264.356562)scale(0.1 -0.1)">
        <defs>
         <path id="DejaVuSans-33" d="M 2597 2516 
 Q 3050 2419 3304 2112 
 Q 3559 1806 3559 1356 
 Q 3559 666 3084 287 
 Q 2609 -91 1734 -91 
 Q 1441 -91 1130 -33 
 Q 819 25 488 141 
 L 488 750 
 Q 750 597 1062 519 
 Q 1375 441 1716 441 
 Q 2309 441 2620 675 
 Q 2931 909 2931 1356 
 Q 2931 1769 2642 2001 
 Q 2353 2234 1838 2234 
 L 1294 2234 
 L 1294 2753 
 L 1863 2753 
 Q 2328 2753 2575 2939 
 Q 2822 3125 2822 3475 
 Q 2822 3834 2567 4026 
 Q 2313 4219 1838 4219 
 Q 1578 4219 1281 4162 
 Q 984 4106 628 3988 
 L 628 4550 
 Q 988 4650 1302 4700 
 Q 1616 4750 1894 4750 
 Q 2613 4750 3031 4423 
 Q 3450 4097 3450 3541 
 Q 3450 3153 3228 2886 
 Q 3006 2619 2597 2516 
 z
 " transform="scale(0.015625)"/>
        </defs>
        <use xlink:href="#DejaVuSans-33"/>
        <use xlink:href="#DejaVuSans-30" x="63.623047"/>
       </g>
      </g>
     </g>
     <g id="xtick_4">
      <g id="line2d_7">
       <path d="M 289.32539 249.758125 
 L 289.32539 32.318125 
 " clip-path="url(#pd49cd94d5a)" style="fill: none; stroke-dasharray: 2.96,1.28; stroke-dashoffset: 0; stroke: #b0b0b0; stroke-opacity: 0.5; stroke-width: 0.8"/>
      </g>
      <g id="line2d_8">
       <g>
        <use xlink:href="#m509231707e" x="289.32539" y="249.758125" style="stroke: #30363d; stroke-width: 0.8"/>
       </g>
      </g>
      <g id="text_4">
       <!-- 40 -->
       <g transform="translate(282.96289 264.356562)scale(0.1 -0.1)">
        <defs>
         <path id="DejaVuSans-34" d="M 2419 4116 
 L 825 1625 
 L 2419 1625 
 L 2419 4116 
 z
 M 2253 4666 
 L 3047 4666 
 L 3047 1625 
 L 3713 1625 
 L 3713 1100 
 L 3047 1100 
 L 3047 0 
 L 2419 0 
 L 2419 1100 
 L 313 1100 
 L 313 1709 
 L 2253 4666 
 z
 " transform="scale(0.015625)"/>
        </defs>
        <use xlink:href="#DejaVuSans-34"/>
        <use xlink:href="#DejaVuSans-30" x="63.623047"/>
       </g>
      </g>
     </g>
     <g id="xtick_5">
      <g id="line2d_9">
       <path d="M 369.040625 249.758125 
 L 369.040625 32.318125 
 " clip-path="url(#pd49cd94d5a)" style="fill: none; stroke-dasharray: 2.96,1.28; stroke-dashoffset: 0; stroke: #b0b0b0; stroke-opacity: 0.5; stroke-width: 0.8"/>
      </g>
      <g id="line2d_10">
       <g>
        <use xlink:href="#m509231707e" x="369.040625" y="249.758125" style="stroke: #30363d; stroke-width: 0.8"/>
       </g>
      </g>
      <g id="text_5">
       <!-- 50 -->
       <g transform="translate(362.678125 264.356562)scale(0.1 -0.1)">
        <defs>
         <path id="DejaVuSans-35" d="M 691 4666 
 L 3169 4666 
 L 3169 4134 
 L 1269 4134 
 L 1269 2991 
 Q 1406 3038 1543 3061 
 Q 1681 3084 1819 3084 
 Q 2600 3084 3056 2656 
 Q 3513 2228 3513 1497 
 Q 3513 744 3044 326 
 Q 2575 -91 1722 -91 
 Q 1428 -91 1123 -41 
 Q 819 9 494 109 
 L 494 744 
 Q 775 591 1075 516 
 Q 1375 441 1709 441 
 Q 2250 441 2565 725 
 Q 2881 1009 2881 1497 
 Q 2881 1984 2565 2268 
 Q 2250 2553 1709 2553 
 Q 1456 2553 1204 2497 
 Q 953 2441 691 2322 
 L 691 4666 
 z
 " transform="scale(0.015625)"/>
        </defs>
        <use xlink:href="#DejaVuSans-35"/>
        <use xlink:href="#DejaVuSans-30" x="63.623047"/>
       </g>
      </g>
     </g>
    </g>
    <g id="matplotlib.axis_2">
     <g id="ytick_1">
      <g id="line2d_11">
       <path d="M 34.240625 249.758125 
 L 369.040625 249.758125 
 " clip-path="url(#pd49cd94d5a)" style="fill: none; stroke-dasharray: 2.96,1.28; stroke-dashoffset: 0; stroke: #b0b0b0; stroke-opacity: 0.5; stroke-width: 0.8"/>
      </g>
      <g id="line2d_12">
       <defs>
        <path id="me2130bea82" d="M 0 0 
 L -3.5 0 
 " style="stroke: #30363d; stroke-width: 0.8"/>
       </defs>
       <g>
        <use xlink:href="#me2130bea82" x="34.240625" y="249.758125" style="stroke: #30363d; stroke-width: 0.8"/>
       </g>
      </g>
      <g id="text_6">
       <!-- 0 -->
       <g transform="translate(20.878125 253.557344)scale(0.1 -0.1)">
        <use xlink:href="#DejaVuSans-30"/>
       </g>
      </g>
     </g>
     <g id="ytick_2">
      <g id="line2d_13">
       <path d="M 34.240625 208.340982 
 L 369.040625 208.340982 
 " clip-path="url(#pd49cd94d5a)" style="fill: none; stroke-dasharray: 2.96,1.28; stroke-dashoffset: 0; stroke: #b0b0b0; stroke-opacity: 0.5; stroke-width: 0.8"/>
      </g>
      <g id="line2d_14">
       <g>
        <use xlink:href="#me2130bea82" x="34.240625" y="208.340982" style="stroke: #30363d; stroke-width: 0.8"/>
       </g>
      </g>
      <g id="text_7">
       <!-- 1 -->
       <g transform="translate(20.878125 212.140201)scale(0.1 -0.1)">
        <use xlink:href="#DejaVuSans-31"/>
       </g>
      </g>
     </g>
     <g id="ytick_3">
      <g id="line2d_15">
       <path d="M 34.240625 166.923839 
 L 369.040625 166.923839 
 " clip-path="url(#pd49cd94d5a)" style="fill: none; stroke-dasharray: 2.96,1.28; stroke-dashoffset: 0; stroke: #b0b0b0; stroke-opacity: 0.5; stroke-width: 0.8"/>
      </g>
      <g id="line2d_16">
       <g>
        <use xlink:href="#me2130bea82" x="34.240625" y="166.923839" style="stroke: #30363d; stroke-width: 0.8"/>
       </g>
      </g>
      <g id="text_8">
       <!-- 2 -->
       <g transform="translate(20.878125 170.723058)scale(0.1 -0.1)">
        <use xlink:href="#DejaVuSans-32"/>
       </g>
      </g>
     </g>
     <g id="ytick_4">
      <g id="line2d_17">
       <path d="M 34.240625 125.506696 
 L 369.040625 125.506696 
 " clip-path="url(#pd49cd94d5a)" style="fill: none; stroke-dasharray: 2.96,1.28; stroke-dashoffset: 0; stroke: #b0b0b0; stroke-opacity: 0.5; stroke-width: 0.8"/>
      </g>
      <g id="line2d_18">
       <g>
        <use xlink:href="#me2130bea82" x="34.240625" y="125.506696" style="stroke: #30363d; stroke-width: 0.8"/>
       </g>
      </g>
      <g id="text_9">
       <!-- 3 -->
       <g transform="translate(20.878125 129.305915)scale(0.1 -0.1)">
        <use xlink:href="#DejaVuSans-33"/>
       </g>
      </g>
     </g>
     <g id="ytick_5">
      <g id="line2d_19">
       <path d="M 34.240625 84.089554 
 L 369.040625 84.089554 
 " clip-path="url(#pd49cd94d5a)" style="fill: none; stroke-dasharray: 2.96,1.28; stroke-dashoffset: 0; stroke: #b0b0b0; stroke-opacity: 0.5; stroke-width: 0.8"/>
      </g>
      <g id="line2d_20">
       <g>
        <use xlink:href="#me2130bea82" x="34.240625" y="84.089554" style="stroke: #30363d; stroke-width: 0.8"/>
       </g>
      </g>
      <g id="text_10">
       <!-- 4 -->
       <g transform="translate(20.878125 87.888772)scale(0.1 -0.1)">
        <use xlink:href="#DejaVuSans-34"/>
       </g>
      </g>
     </g>
     <g id="ytick_6">
      <g id="line2d_21">
       <path d="M 34.240625 42.672411 
 L 369.040625 42.672411 
 " clip-path="url(#pd49cd94d5a)" style="fill: none; stroke-dasharray: 2.96,1.28; stroke-dashoffset: 0; stroke: #b0b0b0; stroke-opacity: 0.5; stroke-width: 0.8"/>
      </g>
      <g id="line2d_22">
       <g>
        <use xlink:href="#me2130bea82" x="34.240625" y="42.672411" style="stroke: #30363d; stroke-width: 0.8"/>
       </g>
      </g>
      <g id="text_11">
       <!-- 5 -->
       <g transform="translate(20.878125 46.471629)scale(0.1 -0.1)">
        <use xlink:href="#DejaVuSans-35"/>
       </g>
      </g>
     </g>
     <g id="text_12">
      <!-- Count -->
      <g transform="translate(14.798437 155.886563)rotate(-90)scale(0.1 -0.1)">
       <defs>
        <path id="DejaVuSans-43" d="M 4122 4306 
 L 4122 3641 
 Q 3803 3938 3442 4084 
 Q 3081 4231 2675 4231 
 Q 1875 4231 1450 3742 
 Q 1025 3253 1025 2328 
 Q 1025 1406 1450 917 
 Q 1875 428 2675 428 
 Q 3081 428 3442 575 
 Q 3803 722 4122 1019 
 L 4122 359 
 Q 3791 134 3420 21 
 Q 3050 -91 2638 -91 
 Q 1578 -91 968 557 
 Q 359 1206 359 2328 
 Q 359 3453 968 4101 
 Q 1578 4750 2638 4750 
 Q 3056 4750 3426 4639 
 Q 3797 4528 4122 4306 
 z
 " transform="scale(0.015625)"/>
        <path id="DejaVuSans-6f" d="M 1959 3097 
 Q 1497 3097 1228 2736 
 Q 959 2375 959 1747 
 Q 959 1119 1226 758 
 Q 1494 397 1959 397 
 Q 2419 397 2687 759 
 Q 2956 1122 2956 1747 
 Q 2956 2369 2687 2733 
 Q 2419 3097 1959 3097 
 z
 M 1959 3584 
 Q 2709 3584 3137 3096 
 Q 3566 2609 3566 1747 
 Q 3566 888 3137 398 
 Q 2709 -91 1959 -91 
 Q 1206 -91 779 398 
 Q 353 888 353 1747 
 Q 353 2609 779 3096 
 Q 1206 3584 1959 3584 
 z
 " transform="scale(0.015625)"/>
        <path id="DejaVuSans-75" d="M 544 1381 
 L 544 3500 
 L 1119 3500 
 L 1119 1403 
 Q 1119 906 1312 657 
 Q 1506 409 1894 409 
 Q 2359 409 2629 706 
 Q 2900 1003 2900 1516 
 L 2900 3500 
 L 3475 3500 
 L 3475 0 
 L 2900 0 
 L 2900 538 
 Q 2691 219 2414 64 
 Q 2138 -91 1772 -91 
 Q 1169 -91 856 284 
 Q 544 659 544 1381 
 z
 M 1991 3584 
 L 1991 3584 
 z
 " transform="scale(0.015625)"/>
        <path id="DejaVuSans-6e" d="M 3513 2113 
 L 3513 0 
 L 2938 0 
 L 2938 2094 
 Q 2938 2591 2744 2837 
 Q 2550 3084 2163 3084 
 Q 1697 3084 1428 2787 
 Q 1159 2491 1159 1978 
 L 1159 0 
 L 581 0 
 L 581 3500 
 L 1159 3500 
 L 1159 2956 
 Q 1366 3272 1645 3428 
 Q 1925 3584 2291 3584 
 Q 2894 3584 3203 3211 
 Q 3513 2838 3513 2113 
 z
 " transform="scale(0.015625)"/>
        <path id="DejaVuSans-74" d="M 1172 4494 
 L 1172 3500 
 L 2356 3500 
 L 2356 3053 
 L 1172 3053 
 L 1172 1153 
 Q 1172 725 1289 603 
 Q 1406 481 1766 481 
 L 2356 481 
 L 2356 0 
 L 1766 0 
 Q 1100 0 847 248 
 Q 594 497 594 1153 
 L 594 3053 
 L 172 3053 
 L 172 3500 
 L 594 3500 
 L 594 4494 
 L 1172 4494 
 z
 " transform="scale(0.015625)"/>
       </defs>
       <use xlink:href="#DejaVuSans-43"/>
       <use xlink:href="#DejaVuSans-6f" x="69.824219"/>
       <use xlink:href="#DejaVuSans-75" x="131.005859"/>
       <use xlink:href="#DejaVuSans-6e" x="194.384766"/>
       <use xlink:href="#DejaVuSans-74" x="257.763672"/>
      </g>
     </g>
    </g>
    <g id="patch_3">
     <path d="M 48.665097 249.758125 
 L 50.402985 249.758125 
 L 50.402985 208.340982 
 L 48.665097 208.340982 
 z
 " clip-path="url(#pd49cd94d5a)" style="fill: #6060c0; stroke: #6060c0; stroke-width: 0.183352; stroke-linejoin: miter"/>
    </g>
    <g id="patch_4">
     <path d="M 50.402985 249.758125 
 L 52.140873 249.758125 
 L 52.140873 249.758125 
 L 50.402985 249.758125 
 z
 " clip-path="url(#pd49cd94d5a)" style="fill: #6060c0; stroke: #6060c0; stroke-width: 0.183352; stroke-linejoin: miter"/>
    </g>
    <g id="patch_5">
     <path d="M 52.140873 249.758125 
 L 53.878761 249.758125 
 L 53.878761 249.758125 
 L 52.140873 249.758125 
 z
 " clip-path="url(#pd49cd94d5a)" style="fill: #6060c0; stroke: #6060c0; stroke-width: 0.183352; stroke-linejoin: miter"/>
    </g>
    <g id="patch_6">
     <path d="M 53.878761 249.758125 
 L 55.616649 249.758125 
 L 55.616649 249.758125 
 L 53.878761 249.758125 
 z
 " clip-path="url(#pd49cd94d5a)" style="fill: #6060c0; stroke: #6060c0; stroke-width: 0.183352; stroke-linejoin: miter"/>
    </g>
    <g id="patch_7">
     <path d="M 55.616649 249.758125 
 L 57.354538 249.758125 
 L 57.354538 208.340982 
 L 55.616649 208.340982 
 z
 " clip-path="url(#pd49cd94d5a)" style="fill: #6060c0; stroke: #6060c0; stroke-width: 0.183352; stroke-linejoin: miter"/>
    </g>
    <g id="patch_8">
     <path d="M 57.354538 249.758125 
 L 59.092426 249.758125 
 L 59.092426 249.758125 
 L 57.354538 249.758125 
 z
 " clip-path="url(#pd49cd94d5a)" style="fill: #6060c0; stroke: #6060c0; stroke-width: 0.183352; stroke-linejoin: miter"/>
    </g>
    <g id="patch_9">
     <path d="M 59.092426 249.758125 
 L 60.830314 249.758125 
 L 60.830314 166.923839 
 L 59.092426 166.923839 
 z
 " clip-path="url(#pd49cd94d5a)" style="fill: #6060c0; stroke: #6060c0; stroke-width: 0.183352; stroke-linejoin: miter"/>
    </g>
    <g id="patch_10">
     <path d="M 60.830314 249.758125 
 L 62.568202 249.758125 
 L 62.568202 249.758125 
 L 60.830314 249.758125 
 z
 " clip-path="url(#pd49cd94d5a)" style="fill: #6060c0; stroke: #6060c0; stroke-width: 0.183352; stroke-linejoin: miter"/>
    </g>
    <g id="patch_11">
     <path d="M 62.568202 249.758125 
 L 64.30609 249.758125 
 L 64.30609 166.923839 
 L 62.568202 166.923839 
 z
 " clip-path="url(#pd49cd94d5a)" style="fill: #6060c0; stroke: #6060c0; stroke-width: 0.183352; stroke-linejoin: miter"/>
    </g>
    <g id="patch_12">
     <path d="M 64.30609 249.758125 
 L 66.043978 249.758125 
 L 66.043978 208.340982 
 L 64.30609 208.340982 
 z
 " clip-path="url(#pd49cd94d5a)" style="fill: #6060c0; stroke: #6060c0; stroke-width: 0.183352; stroke-linejoin: miter"/>
    </g>
    <g id="patch_13">
     <path d="M 66.043978 249.758125 
 L 67.781866 249.758125 
 L 67.781866 208.340982 
 L 66.043978 208.340982 
 z
 " clip-path="url(#pd49cd94d5a)" style="fill: #6060c0; stroke: #6060c0; stroke-width: 0.183352; stroke-linejoin: miter"/>
    </g>
    <g id="patch_14">
     <path d="M 67.781866 249.758125 
 L 69.519755 249.758125 
 L 69.519755 249.758125 
 L 67.781866 249.758125 
 z
 " clip-path="url(#pd49cd94d5a)" style="fill: #6060c0; stroke: #6060c0; stroke-width: 0.183352; stroke-linejoin: miter"/>
    </g>
    <g id="patch_15">
     <path d="M 69.519755 249.758125 
 L 71.257643 249.758125 
 L 71.257643 208.340982 
 L 69.519755 208.340982 
 z
 " clip-path="url(#pd49cd94d5a)" style="fill: #6060c0; stroke: #6060c0; stroke-width: 0.183352; stroke-linejoin: miter"/>
    </g>
    <g id="patch_16">
     <path d="M 71.257643 249.758125 
 L 72.995531 249.758125 
 L 72.995531 208.340982 
 L 71.257643 208.340982 
 z
 " clip-path="url(#pd49cd94d5a)" style="fill: #6060c0; stroke: #6060c0; stroke-width: 0.183352; stroke-linejoin: miter"/>
    </g>
    <g id="patch_17">
     <path d="M 72.995531 249.758125 
 L 74.733419 249.758125 
 L 74.733419 208.340982 
 L 72.995531 208.340982 
 z
 " clip-path="url(#pd49cd94d5a)" style="fill: #6060c0; stroke: #6060c0; stroke-width: 0.183352; stroke-linejoin: miter"/>
    </g>
    <g id="patch_18">
     <path d="M 74.733419 249.758125 
 L 76.471307 249.758125 
 L 76.471307 249.758125 
 L 74.733419 249.758125 
 z
 " clip-path="url(#pd49cd94d5a)" style="fill: #6060c0; stroke: #6060c0; stroke-width: 0.183352; stroke-linejoin: miter"/>
    </g>
    <g id="patch_19">
     <path d="M 76.471307 249.758125 
 L 78.209195 249.758125 
 L 78.209195 249.758125 
 L 76.471307 249.758125 
 z
 " clip-path="url(#pd49cd94d5a)" style="fill: #6060c0; stroke: #6060c0; stroke-width: 0.183352; stroke-linejoin: miter"/>
    </g>
    <g id="patch_20">
     <path d="M 78.209195 249.758125 
 L 79.947084 249.758125 
 L 79.947084 84.089554 
 L 78.209195 84.089554 
 z
 " clip-path="url(#pd49cd94d5a)" style="fill: #6060c0; stroke: #6060c0; stroke-width: 0.183352; stroke-linejoin: miter"/>
    </g>
    <g id="patch_21">
     <path d="M 79.947084 249.758125 
 L 81.684972 249.758125 
 L 81.684972 249.758125 
 L 79.947084 249.758125 
 z
 " clip-path="url(#pd49cd94d5a)" style="fill: #6060c0; stroke: #6060c0; stroke-width: 0.183352; stroke-linejoin: miter"/>
    </g>
    <g id="patch_22">
     <path d="M 81.684972 249.758125 
 L 83.42286 249.758125 
 L 83.42286 166.923839 
 L 81.684972 166.923839 
 z
 " clip-path="url(#pd49cd94d5a)" style="fill: #6060c0; stroke: #6060c0; stroke-width: 0.183352; stroke-linejoin: miter"/>
    </g>
    <g id="patch_23">
     <path d="M 83.42286 249.758125 
 L 85.160748 249.758125 
 L 85.160748 249.758125 
 L 83.42286 249.758125 
 z
 " clip-path="url(#pd49cd94d5a)" style="fill: #6060c0; stroke: #6060c0; stroke-width: 0.183352; stroke-linejoin: miter"/>
    </g>
    <g id="patch_24">
     <path d="M 85.160748 249.758125 
 L 86.898636 249.758125 
 L 86.898636 84.089554 
 L 85.160748 84.089554 
 z
 " clip-path="url(#pd49cd94d5a)" style="fill: #6060c0; stroke: #6060c0; stroke-width: 0.183352; stroke-linejoin: miter"/>
    </g>
    <g id="patch_25">
     <path d="M 86.898636 249.758125 
 L 88.636524 249.758125 
 L 88.636524 208.340982 
 L 86.898636 208.340982 
 z
 " clip-path="url(#pd49cd94d5a)" style="fill: #6060c0; stroke: #6060c0; stroke-width: 0.183352; stroke-linejoin: miter"/>
    </g>
    <g id="patch_26">
     <path d="M 88.636524 249.758125 
 L 90.374413 249.758125 
 L 90.374413 84.089554 
 L 88.636524 84.089554 
 z
 " clip-path="url(#pd49cd94d5a)" style="fill: #6060c0; stroke: #6060c0; stroke-width: 0.183352; stroke-linejoin: miter"/>
    </g>
    <g id="patch_27">
     <path d="M 90.374413 249.758125 
 L 92.112301 249.758125 
 L 92.112301 249.758125 
 L 90.374413 249.758125 
 z
 " clip-path="url(#pd49cd94d5a)" style="fill: #6060c0; stroke: #6060c0; stroke-width: 0.183352; stroke-linejoin: miter"/>
    </g>
    <g id="patch_28">
     <path d="M 92.112301 249.758125 
 L 93.850189 249.758125 
 L 93.850189 249.758125 
 L 92.112301 249.758125 
 z
 " clip-path="url(#pd49cd94d5a)" style="fill: #6060c0; stroke: #6060c0; stroke-width: 0.183352; stroke-linejoin: miter"/>
    </g>
    <g id="patch_29">
     <path d="M 93.850189 249.758125 
 L 95.588077 249.758125 
 L 95.588077 84.089554 
 L 93.850189 84.089554 
 z
 " clip-path="url(#pd49cd94d5a)" style="fill: #6060c0; stroke: #6060c0; stroke-width: 0.183352; stroke-linejoin: miter"/>
    </g>
    <g id="patch_30">
     <path d="M 95.588077 249.758125 
 L 97.325965 249.758125 
 L 97.325965 249.758125 
 L 95.588077 249.758125 
 z
 " clip-path="url(#pd49cd94d5a)" style="fill: #6060c0; stroke: #6060c0; stroke-width: 0.183352; stroke-linejoin: miter"/>
    </g>
    <g id="patch_31">
     <path d="M 97.325965 249.758125 
 L 99.063853 249.758125 
 L 99.063853 84.089554 
 L 97.325965 84.089554 
 z
 " clip-path="url(#pd49cd94d5a)" style="fill: #6060c0; stroke: #6060c0; stroke-width: 0.183352; stroke-linejoin: miter"/>
    </g>
    <g id="patch_32">
     <path d="M 99.063853 249.758125 
 L 100.801741 249.758125 
 L 100.801741 208.340982 
 L 99.063853 208.340982 
 z
 " clip-path="url(#pd49cd94d5a)" style="fill: #6060c0; stroke: #6060c0; stroke-width: 0.183352; stroke-linejoin: miter"/>
    </g>
    <g id="patch_33">
     <path d="M 100.801741 249.758125 
 L 102.53963 249.758125 
 L 102.53963 208.340982 
 L 100.801741 208.340982 
 z
 " clip-path="url(#pd49cd94d5a)" style="fill: #6060c0; stroke: #6060c0; stroke-width: 0.183352; stroke-linejoin: miter"/>
    </g>
    <g id="patch_34">
     <path d="M 102.53963 249.758125 
 L 104.277518 249.758125 
 L 104.277518 125.506696 
 L 102.53963 125.506696 
 z
 " clip-path="url(#pd49cd94d5a)" style="fill: #6060c0; stroke: #6060c0; stroke-width: 0.183352; stroke-linejoin: miter"/>
    </g>
    <g id="patch_35">
     <path d="M 104.277518 249.758125 
 L 106.015406 249.758125 
 L 106.015406 208.340982 
 L 104.277518 208.340982 
 z
 " clip-path="url(#pd49cd94d5a)" style="fill: #6060c0; stroke: #6060c0; stroke-width: 0.183352; stroke-linejoin: miter"/>
    </g>
    <g id="patch_36">
     <path d="M 106.015406 249.758125 
 L 107.753294 249.758125 
 L 107.753294 42.672411 
 L 106.015406 42.672411 
 z
 " clip-path="url(#pd49cd94d5a)" style="fill: #6060c0; stroke: #6060c0; stroke-width: 0.183352; stroke-linejoin: miter"/>
    </g>
    <g id="patch_37">
     <path d="M 107.753294 249.758125 
 L 109.491182 249.758125 
 L 109.491182 208.340982 
 L 107.753294 208.340982 
 z
 " clip-path="url(#pd49cd94d5a)" style="fill: #6060c0; stroke: #6060c0; stroke-width: 0.183352; stroke-linejoin: miter"/>
    </g>
    <g id="patch_38">
     <path d="M 109.491182 249.758125 
 L 111.22907 249.758125 
 L 111.22907 208.340982 
 L 109.491182 208.340982 
 z
 " clip-path="url(#pd49cd94d5a)" style="fill: #6060c0; stroke: #6060c0; stroke-width: 0.183352; stroke-linejoin: miter"/>
    </g>
    <g id="patch_39">
     <path d="M 111.22907 249.758125 
 L 112.966959 249.758125 
 L 112.966959 166.923839 
 L 111.22907 166.923839 
 z
 " clip-path="url(#pd49cd94d5a)" style="fill: #6060c0; stroke: #6060c0; stroke-width: 0.183352; stroke-linejoin: miter"/>
    </g>
    <g id="patch_40">
     <path d="M 112.966959 249.758125 
 L 114.704847 249.758125 
 L 114.704847 208.340982 
 L 112.966959 208.340982 
 z
 " clip-path="url(#pd49cd94d5a)" style="fill: #6060c0; stroke: #6060c0; stroke-width: 0.183352; stroke-linejoin: miter"/>
    </g>
    <g id="patch_41">
     <path d="M 114.704847 249.758125 
 L 116.442735 249.758125 
 L 116.442735 166.923839 
 L 114.704847 166.923839 
 z
 " clip-path="url(#pd49cd94d5a)" style="fill: #6060c0; stroke: #6060c0; stroke-width: 0.183352; stroke-linejoin: miter"/>
    </g>
    <g id="patch_42">
     <path d="M 116.442735 249.758125 
 L 118.180623 249.758125 
 L 118.180623 166.923839 
 L 116.442735 166.923839 
 z
 " clip-path="url(#pd49cd94d5a)" style="fill: #6060c0; stroke: #6060c0; stroke-width: 0.183352; stroke-linejoin: miter"/>
    </g>
    <g id="patch_43">
     <path d="M 118.180623 249.758125 
 L 119.918511 249.758125 
 L 119.918511 125.506696 
 L 118.180623 125.506696 
 z
 " clip-path="url(#pd49cd94d5a)" style="fill: #6060c0; stroke: #6060c0; stroke-width: 0.183352; stroke-linejoin: miter"/>
    </g>
    <g id="patch_44">
     <path d="M 119.918511 249.758125 
 L 121.656399 249.758125 
 L 121.656399 166.923839 
 L 119.918511 166.923839 
 z
 " clip-path="url(#pd49cd94d5a)" style="fill: #6060c0; stroke: #6060c0; stroke-width: 0.183352; stroke-linejoin: miter"/>
    </g>
    <g id="patch_45">
     <path d="M 121.656399 249.758125 
 L 123.394288 249.758125 
 L 123.394288 166.923839 
 L 121.656399 166.923839 
 z
 " clip-path="url(#pd49cd94d5a)" style="fill: #6060c0; stroke: #6060c0; stroke-width: 0.183352; stroke-linejoin: miter"/>
    </g>
    <g id="patch_46">
     <path d="M 123.394288 249.758125 
 L 125.132176 249.758125 
 L 125.132176 166.923839 
 L 123.394288 166.923839 
 z
 " clip-path="url(#pd49cd94d5a)" style="fill: #6060c0; stroke: #6060c0; stroke-width: 0.183352; stroke-linejoin: miter"/>
    </g>
    <g id="patch_47">
     <path d="M 125.132176 249.758125 
 L 126.870064 249.758125 
 L 126.870064 84.089554 
 L 125.132176 84.089554 
 z
 " clip-path="url(#pd49cd94d5a)" style="fill: #6060c0; stroke: #6060c0; stroke-width: 0.183352; stroke-linejoin: miter"/>
    </g>
    <g id="patch_48">
     <path d="M 126.870064 249.758125 
 L 128.607952 249.758125 
 L 128.607952 166.923839 
 L 126.870064 166.923839 
 z
 " clip-path="url(#pd49cd94d5a)" style="fill: #6060c0; stroke: #6060c0; stroke-width: 0.183352; stroke-linejoin: miter"/>
    </g>
    <g id="patch_49">
     <path d="M 128.607952 249.758125 
 L 130.34584 249.758125 
 L 130.34584 166.923839 
 L 128.607952 166.923839 
 z
 " clip-path="url(#pd49cd94d5a)" style="fill: #6060c0; stroke: #6060c0; stroke-width: 0.183352; stroke-linejoin: miter"/>
    </g>
    <g id="patch_50">
     <path d="M 130.34584 249.758125 
 L 132.083728 249.758125 
 L 132.083728 125.506696 
 L 130.34584 125.506696 
 z
 " clip-path="url(#pd49cd94d5a)" style="fill: #6060c0; stroke: #6060c0; stroke-width: 0.183352; stroke-linejoin: miter"/>
    </g>
    <g id="patch_51">
     <path d="M 132.083728 249.758125 
 L 133.821617 249.758125 
 L 133.821617 208.340982 
 L 132.083728 208.340982 
 z
 " clip-path="url(#pd49cd94d5a)" style="fill: #6060c0; stroke: #6060c0; stroke-width: 0.183352; stroke-linejoin: miter"/>
    </g>
    <g id="patch_52">
     <path d="M 133.821617 249.758125 
 L 135.559505 249.758125 
 L 135.559505 84.089554 
 L 133.821617 84.089554 
 z
 " clip-path="url(#pd49cd94d5a)" style="fill: #6060c0; stroke: #6060c0; stroke-width: 0.183352; stroke-linejoin: miter"/>
    </g>
    <g id="patch_53">
     <path d="M 135.559505 249.758125 
 L 137.297393 249.758125 
 L 137.297393 208.340982 
 L 135.559505 208.340982 
 z
 " clip-path="url(#pd49cd94d5a)" style="fill: #6060c0; stroke: #6060c0; stroke-width: 0.183352; stroke-linejoin: miter"/>
    </g>
    <g id="patch_54">
     <path d="M 137.297393 249.758125 
 L 139.035281 249.758125 
 L 139.035281 166.923839 
 L 137.297393 166.923839 
 z
 " clip-path="url(#pd49cd94d5a)" style="fill: #6060c0; stroke: #6060c0; stroke-width: 0.183352; stroke-linejoin: miter"/>
    </g>
    <g id="patch_55">
     <path d="M 139.035281 249.758125 
 L 140.773169 249.758125 
 L 140.773169 249.758125 
 L 139.035281 249.758125 
 z
 " clip-path="url(#pd49cd94d5a)" style="fill: #6060c0; stroke: #6060c0; stroke-width: 0.183352; stroke-linejoin: miter"/>
    </g>
    <g id="patch_56">
     <path d="M 140.773169 249.758125 
 L 142.511057 249.758125 
 L 142.511057 208.340982 
 L 140.773169 208.340982 
 z
 " clip-path="url(#pd49cd94d5a)" style="fill: #6060c0; stroke: #6060c0; stroke-width: 0.183352; stroke-linejoin: miter"/>
    </g>
    <g id="patch_57">
     <path d="M 142.511057 249.758125 
 L 144.248945 249.758125 
 L 144.248945 208.340982 
 L 142.511057 208.340982 
 z
 " clip-path="url(#pd49cd94d5a)" style="fill: #6060c0; stroke: #6060c0; stroke-width: 0.183352; stroke-linejoin: miter"/>
    </g>
    <g id="patch_58">
     <path d="M 144.248945 249.758125 
 L 145.986834 249.758125 
 L 145.986834 166.923839 
 L 144.248945 166.923839 
 z
 " clip-path="url(#pd49cd94d5a)" style="fill: #6060c0; stroke: #6060c0; stroke-width: 0.183352; stroke-linejoin: miter"/>
    </g>
    <g id="patch_59">
     <path d="M 145.986834 249.758125 
 L 147.724722 249.758125 
 L 147.724722 166.923839 
 L 145.986834 166.923839 
 z
 " clip-path="url(#pd49cd94d5a)" style="fill: #6060c0; stroke: #6060c0; stroke-width: 0.183352; stroke-linejoin: miter"/>
    </g>
    <g id="patch_60">
     <path d="M 147.724722 249.758125 
 L 149.46261 249.758125 
 L 149.46261 208.340982 
 L 147.724722 208.340982 
 z
 " clip-path="url(#pd49cd94d5a)" style="fill: #6060c0; stroke: #6060c0; stroke-width: 0.183352; stroke-linejoin: miter"/>
    </g>
    <g id="patch_61">
     <path d="M 149.46261 249.758125 
 L 151.200498 249.758125 
 L 151.200498 249.758125 
 L 149.46261 249.758125 
 z
 " clip-path="url(#pd49cd94d5a)" style="fill: #6060c0; stroke: #6060c0; stroke-width: 0.183352; stroke-linejoin: miter"/>
    </g>
    <g id="patch_62">
     <path d="M 151.200498 249.758125 
 L 152.938386 249.758125 
 L 152.938386 208.340982 
 L 151.200498 208.340982 
 z
 " clip-path="url(#pd49cd94d5a)" style="fill: #6060c0; stroke: #6060c0; stroke-width: 0.183352; stroke-linejoin: miter"/>
    </g>
    <g id="patch_63">
     <path d="M 152.938386 249.758125 
 L 154.676274 249.758125 
 L 154.676274 166.923839 
 L 152.938386 166.923839 
 z
 " clip-path="url(#pd49cd94d5a)" style="fill: #6060c0; stroke: #6060c0; stroke-width: 0.183352; stroke-linejoin: miter"/>
    </g>
    <g id="patch_64">
     <path d="M 154.676274 249.758125 
 L 156.414163 249.758125 
 L 156.414163 166.923839 
 L 154.676274 166.923839 
 z
 " clip-path="url(#pd49cd94d5a)" style="fill: #6060c0; stroke: #6060c0; stroke-width: 0.183352; stroke-linejoin: miter"/>
    </g>
    <g id="patch_65">
     <path d="M 156.414163 249.758125 
 L 158.152051 249.758125 
 L 158.152051 249.758125 
 L 156.414163 249.758125 
 z
 " clip-path="url(#pd49cd94d5a)" style="fill: #6060c0; stroke: #6060c0; stroke-width: 0.183352; stroke-linejoin: miter"/>
    </g>
    <g id="patch_66">
     <path d="M 158.152051 249.758125 
 L 159.889939 249.758125 
 L 159.889939 249.758125 
 L 158.152051 249.758125 
 z
 " clip-path="url(#pd49cd94d5a)" style="fill: #6060c0; stroke: #6060c0; stroke-width: 0.183352; stroke-linejoin: miter"/>
    </g>
    <g id="patch_67">
     <path d="M 159.889939 249.758125 
 L 161.627827 249.758125 
 L 161.627827 249.758125 
 L 159.889939 249.758125 
 z
 " clip-path="url(#pd49cd94d5a)" style="fill: #6060c0; stroke: #6060c0; stroke-width: 0.183352; stroke-linejoin: miter"/>
    </g>
    <g id="patch_68">
     <path d="M 161.627827 249.758125 
 L 163.365715 249.758125 
 L 163.365715 166.923839 
 L 161.627827 166.923839 
 z
 " clip-path="url(#pd49cd94d5a)" style="fill: #6060c0; stroke: #6060c0; stroke-width: 0.183352; stroke-linejoin: miter"/>
    </g>
    <g id="patch_69">
     <path d="M 163.365715 249.758125 
 L 165.103603 249.758125 
 L 165.103603 166.923839 
 L 163.365715 166.923839 
 z
 " clip-path="url(#pd49cd94d5a)" style="fill: #6060c0; stroke: #6060c0; stroke-width: 0.183352; stroke-linejoin: miter"/>
    </g>
    <g id="patch_70">
     <path d="M 165.103603 249.758125 
 L 166.841492 249.758125 
 L 166.841492 208.340982 
 L 165.103603 208.340982 
 z
 " clip-path="url(#pd49cd94d5a)" style="fill: #6060c0; stroke: #6060c0; stroke-width: 0.183352; stroke-linejoin: miter"/>
    </g>
    <g id="patch_71">
     <path d="M 166.841492 249.758125 
 L 168.57938 249.758125 
 L 168.57938 208.340982 
 L 166.841492 208.340982 
 z
 " clip-path="url(#pd49cd94d5a)" style="fill: #6060c0; stroke: #6060c0; stroke-width: 0.183352; stroke-linejoin: miter"/>
    </g>
    <g id="patch_72">
     <path d="M 168.57938 249.758125 
 L 170.317268 249.758125 
 L 170.317268 208.340982 
 L 168.57938 208.340982 
 z
 " clip-path="url(#pd49cd94d5a)" style="fill: #6060c0; stroke: #6060c0; stroke-width: 0.183352; stroke-linejoin: miter"/>
    </g>
    <g id="patch_73">
     <path d="M 170.317268 249.758125 
 L 172.055156 249.758125 
 L 172.055156 249.758125 
 L 170.317268 249.758125 
 z
 " clip-path="url(#pd49cd94d5a)" style="fill: #6060c0; stroke: #6060c0; stroke-width: 0.183352; stroke-linejoin: miter"/>
    </g>
    <g id="patch_74">
     <path d="M 172.055156 249.758125 
 L 173.793044 249.758125 
 L 173.793044 249.758125 
 L 172.055156 249.758125 
 z
 " clip-path="url(#pd49cd94d5a)" style="fill: #6060c0; stroke: #6060c0; stroke-width: 0.183352; stroke-linejoin: miter"/>
    </g>
    <g id="patch_75">
     <path d="M 173.793044 249.758125 
 L 175.530932 249.758125 
 L 175.530932 249.758125 
 L 173.793044 249.758125 
 z
 " clip-path="url(#pd49cd94d5a)" style="fill: #6060c0; stroke: #6060c0; stroke-width: 0.183352; stroke-linejoin: miter"/>
    </g>
    <g id="patch_76">
     <path d="M 175.530932 249.758125 
 L 177.26882 249.758125 
 L 177.26882 125.506696 
 L 175.530932 125.506696 
 z
 " clip-path="url(#pd49cd94d5a)" style="fill: #6060c0; stroke: #6060c0; stroke-width: 0.183352; stroke-linejoin: miter"/>
    </g>
    <g id="patch_77">
     <path d="M 177.26882 249.758125 
 L 179.006709 249.758125 
 L 179.006709 166.923839 
 L 177.26882 166.923839 
 z
 " clip-path="url(#pd49cd94d5a)" style="fill: #6060c0; stroke: #6060c0; stroke-width: 0.183352; stroke-linejoin: miter"/>
    </g>
    <g id="patch_78">
     <path d="M 179.006709 249.758125 
 L 180.744597 249.758125 
 L 180.744597 208.340982 
 L 179.006709 208.340982 
 z
 " clip-path="url(#pd49cd94d5a)" style="fill: #6060c0; stroke: #6060c0; stroke-width: 0.183352; stroke-linejoin: miter"/>
    </g>
    <g id="patch_79">
     <path d="M 180.744597 249.758125 
 L 182.482485 249.758125 
 L 182.482485 208.340982 
 L 180.744597 208.340982 
 z
 " clip-path="url(#pd49cd94d5a)" style="fill: #6060c0; stroke: #6060c0; stroke-width: 0.183352; stroke-linejoin: miter"/>
    </g>
    <g id="patch_80">
     <path d="M 182.482485 249.758125 
 L 184.220373 249.758125 
 L 184.220373 166.923839 
 L 182.482485 166.923839 
 z
 " clip-path="url(#pd49cd94d5a)" style="fill: #6060c0; stroke: #6060c0; stroke-width: 0.183352; stroke-linejoin: miter"/>
    </g>
    <g id="patch_81">
     <path d="M 184.220373 249.758125 
 L 185.958261 249.758125 
 L 185.958261 249.758125 
 L 184.220373 249.758125 
 z
 " clip-path="url(#pd49cd94d5a)" style="fill: #6060c0; stroke: #6060c0; stroke-width: 0.183352; stroke-linejoin: miter"/>
    </g>
    <g id="patch_82">
     <path d="M 185.958261 249.758125 
 L 187.696149 249.758125 
 L 187.696149 208.340982 
 L 185.958261 208.340982 
 z
 " clip-path="url(#pd49cd94d5a)" style="fill: #6060c0; stroke: #6060c0; stroke-width: 0.183352; stroke-linejoin: miter"/>
    </g>
    <g id="patch_83">
     <path d="M 187.696149 249.758125 
 L 189.434038 249.758125 
 L 189.434038 249.758125 
 L 187.696149 249.758125 
 z
 " clip-path="url(#pd49cd94d5a)" style="fill: #6060c0; stroke: #6060c0; stroke-width: 0.183352; stroke-linejoin: miter"/>
    </g>
    <g id="patch_84">
     <path d="M 189.434038 249.758125 
 L 191.171926 249.758125 
 L 191.171926 166.923839 
 L 189.434038 166.923839 
 z
 " clip-path="url(#pd49cd94d5a)" style="fill: #6060c0; stroke: #6060c0; stroke-width: 0.183352; stroke-linejoin: miter"/>
    </g>
    <g id="patch_85">
     <path d="M 191.171926 249.758125 
 L 192.909814 249.758125 
 L 192.909814 249.758125 
 L 191.171926 249.758125 
 z
 " clip-path="url(#pd49cd94d5a)" style="fill: #6060c0; stroke: #6060c0; stroke-width: 0.183352; stroke-linejoin: miter"/>
    </g>
    <g id="patch_86">
     <path d="M 192.909814 249.758125 
 L 194.647702 249.758125 
 L 194.647702 208.340982 
 L 192.909814 208.340982 
 z
 " clip-path="url(#pd49cd94d5a)" style="fill: #6060c0; stroke: #6060c0; stroke-width: 0.183352; stroke-linejoin: miter"/>
    </g>
    <g id="patch_87">
     <path d="M 194.647702 249.758125 
 L 196.38559 249.758125 
 L 196.38559 249.758125 
 L 194.647702 249.758125 
 z
 " clip-path="url(#pd49cd94d5a)" style="fill: #6060c0; stroke: #6060c0; stroke-width: 0.183352; stroke-linejoin: miter"/>
    </g>
    <g id="patch_88">
     <path d="M 196.38559 249.758125 
 L 198.123478 249.758125 
 L 198.123478 208.340982 
 L 196.38559 208.340982 
 z
 " clip-path="url(#pd49cd94d5a)" style="fill: #6060c0; stroke: #6060c0; stroke-width: 0.183352; stroke-linejoin: miter"/>
    </g>
    <g id="patch_89">
     <path d="M 198.123478 249.758125 
 L 199.861367 249.758125 
 L 199.861367 249.758125 
 L 198.123478 249.758125 
 z
 " clip-path="url(#pd49cd94d5a)" style="fill: #6060c0; stroke: #6060c0; stroke-width: 0.183352; stroke-linejoin: miter"/>
    </g>
    <g id="patch_90">
     <path d="M 199.861367 249.758125 
 L 201.599255 249.758125 
 L 201.599255 249.758125 
 L 199.861367 249.758125 
 z
 " clip-path="url(#pd49cd94d5a)" style="fill: #6060c0; stroke: #6060c0; stroke-width: 0.183352; stroke-linejoin: miter"/>
    </g>
    <g id="patch_91">
     <path d="M 201.599255 249.758125 
 L 203.337143 249.758125 
 L 203.337143 208.340982 
 L 201.599255 208.340982 
 z
 " clip-path="url(#pd49cd94d5a)" style="fill: #6060c0; stroke: #6060c0; stroke-width: 0.183352; stroke-linejoin: miter"/>
    </g>
    <g id="patch_92">
     <path d="M 203.337143 249.758125 
 L 205.075031 249.758125 
 L 205.075031 125.506696 
 L 203.337143 125.506696 
 z
 " clip-path="url(#pd49cd94d5a)" style="fill: #6060c0; stroke: #6060c0; stroke-width: 0.183352; stroke-linejoin: miter"/>
    </g>
    <g id="patch_93">
     <path d="M 205.075031 249.758125 
 L 206.812919 249.758125 
 L 206.812919 249.758125 
 L 205.075031 249.758125 
 z
 " clip-path="url(#pd49cd94d5a)" style="fill: #6060c0; stroke: #6060c0; stroke-width: 0.183352; stroke-linejoin: miter"/>
    </g>
    <g id="patch_94">
     <path d="M 206.812919 249.758125 
 L 208.550807 249.758125 
 L 208.550807 166.923839 
 L 206.812919 166.923839 
 z
 " clip-path="url(#pd49cd94d5a)" style="fill: #6060c0; stroke: #6060c0; stroke-width: 0.183352; stroke-linejoin: miter"/>
    </g>
    <g id="patch_95">
     <path d="M 208.550807 249.758125 
 L 210.288696 249.758125 
 L 210.288696 208.340982 
 L 208.550807 208.340982 
 z
 " clip-path="url(#pd49cd94d5a)" style="fill: #6060c0; stroke: #6060c0; stroke-width: 0.183352; stroke-linejoin: miter"/>
    </g>
    <g id="patch_96">
     <path d="M 210.288696 249.758125 
 L 212.026584 249.758125 
 L 212.026584 249.758125 
 L 210.288696 249.758125 
 z
 " clip-path="url(#pd49cd94d5a)" style="fill: #6060c0; stroke: #6060c0; stroke-width: 0.183352; stroke-linejoin: miter"/>
    </g>
    <g id="patch_97">
     <path d="M 212.026584 249.758125 
 L 213.764472 249.758125 
 L 213.764472 208.340982 
 L 212.026584 208.340982 
 z
 " clip-path="url(#pd49cd94d5a)" style="fill: #6060c0; stroke: #6060c0; stroke-width: 0.183352; stroke-linejoin: miter"/>
    </g>
    <g id="patch_98">
     <path d="M 213.764472 249.758125 
 L 215.50236 249.758125 
 L 215.50236 166.923839 
 L 213.764472 166.923839 
 z
 " clip-path="url(#pd49cd94d5a)" style="fill: #6060c0; stroke: #6060c0; stroke-width: 0.183352; stroke-linejoin: miter"/>
    </g>
    <g id="patch_99">
     <path d="M 215.50236 249.758125 
 L 217.240248 249.758125 
 L 217.240248 208.340982 
 L 215.50236 208.340982 
 z
 " clip-path="url(#pd49cd94d5a)" style="fill: #6060c0; stroke: #6060c0; stroke-width: 0.183352; stroke-linejoin: miter"/>
    </g>
    <g id="patch_100">
     <path d="M 217.240248 249.758125 
 L 218.978136 249.758125 
 L 218.978136 208.340982 
 L 217.240248 208.340982 
 z
 " clip-path="url(#pd49cd94d5a)" style="fill: #6060c0; stroke: #6060c0; stroke-width: 0.183352; stroke-linejoin: miter"/>
    </g>
    <g id="patch_101">
     <path d="M 218.978136 249.758125 
 L 220.716024 249.758125 
 L 220.716024 249.758125 
 L 218.978136 249.758125 
 z
 " clip-path="url(#pd49cd94d5a)" style="fill: #6060c0; stroke: #6060c0; stroke-width: 0.183352; stroke-linejoin: miter"/>
    </g>
    <g id="patch_102">
     <path d="M 220.716024 249.758125 
 L 222.453913 249.758125 
 L 222.453913 208.340982 
 L 220.716024 208.340982 
 z
 " clip-path="url(#pd49cd94d5a)" style="fill: #6060c0; stroke: #6060c0; stroke-width: 0.183352; stroke-linejoin: miter"/>
    </g>
    <g id="patch_103">
     <path d="M 222.453913 249.758125 
 L 224.191801 249.758125 
 L 224.191801 208.340982 
 L 222.453913 208.340982 
 z
 " clip-path="url(#pd49cd94d5a)" style="fill: #6060c0; stroke: #6060c0; stroke-width: 0.183352; stroke-linejoin: miter"/>
    </g>
    <g id="patch_104">
     <path d="M 224.191801 249.758125 
 L 225.929689 249.758125 
 L 225.929689 208.340982 
 L 224.191801 208.340982 
 z
 " clip-path="url(#pd49cd94d5a)" style="fill: #6060c0; stroke: #6060c0; stroke-width: 0.183352; stroke-linejoin: miter"/>
    </g>
    <g id="patch_105">
     <path d="M 225.929689 249.758125 
 L 227.667577 249.758125 
 L 227.667577 208.340982 
 L 225.929689 208.340982 
 z
 " clip-path="url(#pd49cd94d5a)" style="fill: #6060c0; stroke: #6060c0; stroke-width: 0.183352; stroke-linejoin: miter"/>
    </g>
    <g id="patch_106">
     <path d="M 227.667577 249.758125 
 L 229.405465 249.758125 
 L 229.405465 249.758125 
 L 227.667577 249.758125 
 z
 " clip-path="url(#pd49cd94d5a)" style="fill: #6060c0; stroke: #6060c0; stroke-width: 0.183352; stroke-linejoin: miter"/>
    </g>
    <g id="patch_107">
     <path d="M 229.405465 249.758125 
 L 231.143353 249.758125 
 L 231.143353 249.758125 
 L 229.405465 249.758125 
 z
 " clip-path="url(#pd49cd94d5a)" style="fill: #6060c0; stroke: #6060c0; stroke-width: 0.183352; stroke-linejoin: miter"/>
    </g>
    <g id="patch_108">
     <path d="M 231.143353 249.758125 
 L 232.881242 249.758125 
 L 232.881242 208.340982 
 L 231.143353 208.340982 
 z
 " clip-path="url(#pd49cd94d5a)" style="fill: #6060c0; stroke: #6060c0; stroke-width: 0.183352; stroke-linejoin: miter"/>
    </g>
    <g id="patch_109">
     <path d="M 232.881242 249.758125 
 L 234.61913 249.758125 
 L 234.61913 249.758125 
 L 232.881242 249.758125 
 z
 " clip-path="url(#pd49cd94d5a)" style="fill: #6060c0; stroke: #6060c0; stroke-width: 0.183352; stroke-linejoin: miter"/>
    </g>
    <g id="patch_110">
     <path d="M 234.61913 249.758125 
 L 236.357018 249.758125 
 L 236.357018 249.758125 
 L 234.61913 249.758125 
 z
 " clip-path="url(#pd49cd94d5a)" style="fill: #6060c0; stroke: #6060c0; stroke-width: 0.183352; stroke-linejoin: miter"/>
    </g>
    <g id="patch_111">
     <path d="M 236.357018 249.758125 
 L 238.094906 249.758125 
 L 238.094906 208.340982 
 L 236.357018 208.340982 
 z
 " clip-path="url(#pd49cd94d5a)" style="fill: #6060c0; stroke: #6060c0; stroke-width: 0.183352; stroke-linejoin: miter"/>
    </g>
    <g id="patch_112">
     <path d="M 238.094906 249.758125 
 L 239.832794 249.758125 
 L 239.832794 208.340982 
 L 238.094906 208.340982 
 z
 " clip-path="url(#pd49cd94d5a)" style="fill: #6060c0; stroke: #6060c0; stroke-width: 0.183352; stroke-linejoin: miter"/>
    </g>
    <g id="patch_113">
     <path d="M 239.832794 249.758125 
 L 241.570682 249.758125 
 L 241.570682 208.340982 
 L 239.832794 208.340982 
 z
 " clip-path="url(#pd49cd94d5a)" style="fill: #6060c0; stroke: #6060c0; stroke-width: 0.183352; stroke-linejoin: miter"/>
    </g>
    <g id="patch_114">
     <path d="M 241.570682 249.758125 
 L 243.308571 249.758125 
 L 243.308571 208.340982 
 L 241.570682 208.340982 
 z
 " clip-path="url(#pd49cd94d5a)" style="fill: #6060c0; stroke: #6060c0; stroke-width: 0.183352; stroke-linejoin: miter"/>
    </g>
    <g id="patch_115">
     <path d="M 243.308571 249.758125 
 L 245.046459 249.758125 
 L 245.046459 249.758125 
 L 243.308571 249.758125 
 z
 " clip-path="url(#pd49cd94d5a)" style="fill: #6060c0; stroke: #6060c0; stroke-width: 0.183352; stroke-linejoin: miter"/>
    </g>
    <g id="patch_116">
     <path d="M 245.046459 249.758125 
 L 246.784347 249.758125 
 L 246.784347 166.923839 
 L 245.046459 166.923839 
 z
 " clip-path="url(#pd49cd94d5a)" style="fill: #6060c0; stroke: #6060c0; stroke-width: 0.183352; stroke-linejoin: miter"/>
    </g>
    <g id="patch_117">
     <path d="M 246.784347 249.758125 
 L 248.522235 249.758125 
 L 248.522235 249.758125 
 L 246.784347 249.758125 
 z
 " clip-path="url(#pd49cd94d5a)" style="fill: #6060c0; stroke: #6060c0; stroke-width: 0.183352; stroke-linejoin: miter"/>
    </g>
    <g id="patch_118">
     <path d="M 248.522235 249.758125 
 L 250.260123 249.758125 
 L 250.260123 249.758125 
 L 248.522235 249.758125 
 z
 " clip-path="url(#pd49cd94d5a)" style="fill: #6060c0; stroke: #6060c0; stroke-width: 0.183352; stroke-linejoin: miter"/>
    </g>
    <g id="patch_119">
     <path d="M 250.260123 249.758125 
 L 251.998011 249.758125 
 L 251.998011 249.758125 
 L 250.260123 249.758125 
 z
 " clip-path="url(#pd49cd94d5a)" style="fill: #6060c0; stroke: #6060c0; stroke-width: 0.183352; stroke-linejoin: miter"/>
    </g>
    <g id="patch_120">
     <path d="M 251.998011 249.758125 
 L 253.735899 249.758125 
 L 253.735899 208.340982 
 L 251.998011 208.340982 
 z
 " clip-path="url(#pd49cd94d5a)" style="fill: #6060c0; stroke: #6060c0; stroke-width: 0.183352; stroke-linejoin: miter"/>
    </g>
    <g id="patch_121">
     <path d="M 253.735899 249.758125 
 L 255.473788 249.758125 
 L 255.473788 249.758125 
 L 253.735899 249.758125 
 z
 " clip-path="url(#pd49cd94d5a)" style="fill: #6060c0; stroke: #6060c0; stroke-width: 0.183352; stroke-linejoin: miter"/>
    </g>
    <g id="patch_122">
     <path d="M 255.473788 249.758125 
 L 257.211676 249.758125 
 L 257.211676 249.758125 
 L 255.473788 249.758125 
 z
 " clip-path="url(#pd49cd94d5a)" style="fill: #6060c0; stroke: #6060c0; stroke-width: 0.183352; stroke-linejoin: miter"/>
    </g>
    <g id="patch_123">
     <path d="M 257.211676 249.758125 
 L 258.949564 249.758125 
 L 258.949564 208.340982 
 L 257.211676 208.340982 
 z
 " clip-path="url(#pd49cd94d5a)" style="fill: #6060c0; stroke: #6060c0; stroke-width: 0.183352; stroke-linejoin: miter"/>
    </g>
    <g id="patch_124">
     <path d="M 258.949564 249.758125 
 L 260.687452 249.758125 
 L 260.687452 249.758125 
 L 258.949564 249.758125 
 z
 " clip-path="url(#pd49cd94d5a)" style="fill: #6060c0; stroke: #6060c0; stroke-width: 0.183352; stroke-linejoin: miter"/>
    </g>
    <g id="patch_125">
     <path d="M 260.687452 249.758125 
 L 262.42534 249.758125 
 L 262.42534 166.923839 
 L 260.687452 166.923839 
 z
 " clip-path="url(#pd49cd94d5a)" style="fill: #6060c0; stroke: #6060c0; stroke-width: 0.183352; stroke-linejoin: miter"/>
    </g>
    <g id="patch_126">
     <path d="M 262.42534 249.758125 
 L 264.163228 249.758125 
 L 264.163228 208.340982 
 L 262.42534 208.340982 
 z
 " clip-path="url(#pd49cd94d5a)" style="fill: #6060c0; stroke: #6060c0; stroke-width: 0.183352; stroke-linejoin: miter"/>
    </g>
    <g id="patch_127">
     <path d="M 264.163228 249.758125 
 L 265.901117 249.758125 
 L 265.901117 208.340982 
 L 264.163228 208.340982 
 z
 " clip-path="url(#pd49cd94d5a)" style="fill: #6060c0; stroke: #6060c0; stroke-width: 0.183352; stroke-linejoin: miter"/>
    </g>
    <g id="patch_128">
     <path d="M 265.901117 249.758125 
 L 267.639005 249.758125 
 L 267.639005 166.923839 
 L 265.901117 166.923839 
 z
 " clip-path="url(#pd49cd94d5a)" style="fill: #6060c0; stroke: #6060c0; stroke-width: 0.183352; stroke-linejoin: miter"/>
    </g>
    <g id="patch_129">
     <path d="M 267.639005 249.758125 
 L 269.376893 249.758125 
 L 269.376893 125.506696 
 L 267.639005 125.506696 
 z
 " clip-path="url(#pd49cd94d5a)" style="fill: #6060c0; stroke: #6060c0; stroke-width: 0.183352; stroke-linejoin: miter"/>
    </g>
    <g id="patch_130">
     <path d="M 269.376893 249.758125 
 L 271.114781 249.758125 
 L 271.114781 208.340982 
 L 269.376893 208.340982 
 z
 " clip-path="url(#pd49cd94d5a)" style="fill: #6060c0; stroke: #6060c0; stroke-width: 0.183352; stroke-linejoin: miter"/>
    </g>
    <g id="patch_131">
     <path d="M 271.114781 249.758125 
 L 272.852669 249.758125 
 L 272.852669 208.340982 
 L 271.114781 208.340982 
 z
 " clip-path="url(#pd49cd94d5a)" style="fill: #6060c0; stroke: #6060c0; stroke-width: 0.183352; stroke-linejoin: miter"/>
    </g>
    <g id="patch_132">
     <path d="M 272.852669 249.758125 
 L 274.590557 249.758125 
 L 274.590557 249.758125 
 L 272.852669 249.758125 
 z
 " clip-path="url(#pd49cd94d5a)" style="fill: #6060c0; stroke: #6060c0; stroke-width: 0.183352; stroke-linejoin: miter"/>
    </g>
    <g id="patch_133">
     <path d="M 274.590557 249.758125 
 L 276.328446 249.758125 
 L 276.328446 208.340982 
 L 274.590557 208.340982 
 z
 " clip-path="url(#pd49cd94d5a)" style="fill: #6060c0; stroke: #6060c0; stroke-width: 0.183352; stroke-linejoin: miter"/>
    </g>
    <g id="patch_134">
     <path d="M 276.328446 249.758125 
 L 278.066334 249.758125 
 L 278.066334 125.506696 
 L 276.328446 125.506696 
 z
 " clip-path="url(#pd49cd94d5a)" style="fill: #6060c0; stroke: #6060c0; stroke-width: 0.183352; stroke-linejoin: miter"/>
    </g>
    <g id="patch_135">
     <path d="M 278.066334 249.758125 
 L 279.804222 249.758125 
 L 279.804222 208.340982 
 L 278.066334 208.340982 
 z
 " clip-path="url(#pd49cd94d5a)" style="fill: #6060c0; stroke: #6060c0; stroke-width: 0.183352; stroke-linejoin: miter"/>
    </g>
    <g id="patch_136">
     <path d="M 279.804222 249.758125 
 L 281.54211 249.758125 
 L 281.54211 166.923839 
 L 279.804222 166.923839 
 z
 " clip-path="url(#pd49cd94d5a)" style="fill: #6060c0; stroke: #6060c0; stroke-width: 0.183352; stroke-linejoin: miter"/>
    </g>
    <g id="patch_137">
     <path d="M 281.54211 249.758125 
 L 283.279998 249.758125 
 L 283.279998 208.340982 
 L 281.54211 208.340982 
 z
 " clip-path="url(#pd49cd94d5a)" style="fill: #6060c0; stroke: #6060c0; stroke-width: 0.183352; stroke-linejoin: miter"/>
    </g>
    <g id="patch_138">
     <path d="M 283.279998 249.758125 
 L 285.017886 249.758125 
 L 285.017886 208.340982 
 L 283.279998 208.340982 
 z
 " clip-path="url(#pd49cd94d5a)" style="fill: #6060c0; stroke: #6060c0; stroke-width: 0.183352; stroke-linejoin: miter"/>
    </g>
    <g id="patch_139">
     <path d="M 285.017886 249.758125 
 L 286.755775 249.758125 
 L 286.755775 249.758125 
 L 285.017886 249.758125 
 z
 " clip-path="url(#pd49cd94d5a)" style="fill: #6060c0; stroke: #6060c0; stroke-width: 0.183352; stroke-linejoin: miter"/>
    </g>
    <g id="patch_140">
     <path d="M 286.755775 249.758125 
 L 288.493663 249.758125 
 L 288.493663 249.758125 
 L 286.755775 249.758125 
 z
 " clip-path="url(#pd49cd94d5a)" style="fill: #6060c0; stroke: #6060c0; stroke-width: 0.183352; stroke-linejoin: miter"/>
    </g>
    <g id="patch_141">
     <path d="M 288.493663 249.758125 
 L 290.231551 249.758125 
 L 290.231551 166.923839 
 L 288.493663 166.923839 
 z
 " clip-path="url(#pd49cd94d5a)" style="fill: #6060c0; stroke: #6060c0; stroke-width: 0.183352; stroke-linejoin: miter"/>
    </g>
    <g id="patch_142">
     <path d="M 290.231551 249.758125 
 L 291.969439 249.758125 
 L 291.969439 249.758125 
 L 290.231551 249.758125 
 z
 " clip-path="url(#pd49cd94d5a)" style="fill: #6060c0; stroke: #6060c0; stroke-width: 0.183352; stroke-linejoin: miter"/>
    </g>
    <g id="patch_143">
     <path d="M 291.969439 249.758125 
 L 293.707327 249.758125 
 L 293.707327 166.923839 
 L 291.969439 166.923839 
 z
 " clip-path="url(#pd49cd94d5a)" style="fill: #6060c0; stroke: #6060c0; stroke-width: 0.183352; stroke-linejoin: miter"/>
    </g>
    <g id="patch_144">
     <path d="M 293.707327 249.758125 
 L 295.445215 249.758125 
 L 295.445215 249.758125 
 L 293.707327 249.758125 
 z
 " clip-path="url(#pd49cd94d5a)" style="fill: #6060c0; stroke: #6060c0; stroke-width: 0.183352; stroke-linejoin: miter"/>
    </g>
    <g id="patch_145">
     <path d="M 295.445215 249.758125 
 L 297.183103 249.758125 
 L 297.183103 249.758125 
 L 295.445215 249.758125 
 z
 " clip-path="url(#pd49cd94d5a)" style="fill: #6060c0; stroke: #6060c0; stroke-width: 0.183352; stroke-linejoin: miter"/>
    </g>
    <g id="patch_146">
     <path d="M 297.183103 249.758125 
 L 298.920992 249.758125 
 L 298.920992 249.758125 
 L 297.183103 249.758125 
 z
 " clip-path="url(#pd49cd94d5a)" style="fill: #6060c0; stroke: #6060c0; stroke-width: 0.183352; stroke-linejoin: miter"/>
    </g>
    <g id="patch_147">
     <path d="M 298.920992 249.758125 
 L 300.65888 249.758125 
 L 300.65888 249.758125 
 L 298.920992 249.758125 
 z
 " clip-path="url(#pd49cd94d5a)" style="fill: #6060c0; stroke: #6060c0; stroke-width: 0.183352; stroke-linejoin: miter"/>
    </g>
    <g id="patch_148">
     <path d="M 300.65888 249.758125 
 L 302.396768 249.758125 
 L 302.396768 249.758125 
 L 300.65888 249.758125 
 z
 " clip-path="url(#pd49cd94d5a)" style="fill: #6060c0; stroke: #6060c0; stroke-width: 0.183352; stroke-linejoin: miter"/>
    </g>
    <g id="patch_149">
     <path d="M 302.396768 249.758125 
 L 304.134656 249.758125 
 L 304.134656 249.758125 
 L 302.396768 249.758125 
 z
 " clip-path="url(#pd49cd94d5a)" style="fill: #6060c0; stroke: #6060c0; stroke-width: 0.183352; stroke-linejoin: miter"/>
    </g>
    <g id="patch_150">
     <path d="M 304.134656 249.758125 
 L 305.872544 249.758125 
 L 305.872544 249.758125 
 L 304.134656 249.758125 
 z
 " clip-path="url(#pd49cd94d5a)" style="fill: #6060c0; stroke: #6060c0; stroke-width: 0.183352; stroke-linejoin: miter"/>
    </g>
    <g id="patch_151">
     <path d="M 305.872544 249.758125 
 L 307.610432 249.758125 
 L 307.610432 249.758125 
 L 305.872544 249.758125 
 z
 " clip-path="url(#pd49cd94d5a)" style="fill: #6060c0; stroke: #6060c0; stroke-width: 0.183352; stroke-linejoin: miter"/>
    </g>
    <g id="patch_152">
     <path d="M 307.610432 249.758125 
 L 309.348321 249.758125 
 L 309.348321 249.758125 
 L 307.610432 249.758125 
 z
 " clip-path="url(#pd49cd94d5a)" style="fill: #6060c0; stroke: #6060c0; stroke-width: 0.183352; stroke-linejoin: miter"/>
    </g>
    <g id="patch_153">
     <path d="M 309.348321 249.758125 
 L 311.086209 249.758125 
 L 311.086209 249.758125 
 L 309.348321 249.758125 
 z
 " clip-path="url(#pd49cd94d5a)" style="fill: #6060c0; stroke: #6060c0; stroke-width: 0.183352; stroke-linejoin: miter"/>
    </g>
    <g id="patch_154">
     <path d="M 311.086209 249.758125 
 L 312.824097 249.758125 
 L 312.824097 208.340982 
 L 311.086209 208.340982 
 z
 " clip-path="url(#pd49cd94d5a)" style="fill: #6060c0; stroke: #6060c0; stroke-width: 0.183352; stroke-linejoin: miter"/>
    </g>
    <g id="patch_155">
     <path d="M 312.824097 249.758125 
 L 314.561985 249.758125 
 L 314.561985 249.758125 
 L 312.824097 249.758125 
 z
 " clip-path="url(#pd49cd94d5a)" style="fill: #6060c0; stroke: #6060c0; stroke-width: 0.183352; stroke-linejoin: miter"/>
    </g>
    <g id="patch_156">
     <path d="M 314.561985 249.758125 
 L 316.299873 249.758125 
 L 316.299873 249.758125 
 L 314.561985 249.758125 
 z
 " clip-path="url(#pd49cd94d5a)" style="fill: #6060c0; stroke: #6060c0; stroke-width: 0.183352; stroke-linejoin: miter"/>
    </g>
    <g id="patch_157">
     <path d="M 316.299873 249.758125 
 L 318.037761 249.758125 
 L 318.037761 249.758125 
 L 316.299873 249.758125 
 z
 " clip-path="url(#pd49cd94d5a)" style="fill: #6060c0; stroke: #6060c0; stroke-width: 0.183352; stroke-linejoin: miter"/>
    </g>
    <g id="patch_158">
     <path d="M 318.037761 249.758125 
 L 319.77565 249.758125 
 L 319.77565 249.758125 
 L 318.037761 249.758125 
 z
 " clip-path="url(#pd49cd94d5a)" style="fill: #6060c0; stroke: #6060c0; stroke-width: 0.183352; stroke-linejoin: miter"/>
    </g>
    <g id="patch_159">
     <path d="M 319.77565 249.758125 
 L 321.513538 249.758125 
 L 321.513538 249.758125 
 L 319.77565 249.758125 
 z
 " clip-path="url(#pd49cd94d5a)" style="fill: #6060c0; stroke: #6060c0; stroke-width: 0.183352; stroke-linejoin: miter"/>
    </g>
    <g id="patch_160">
     <path d="M 321.513538 249.758125 
 L 323.251426 249.758125 
 L 323.251426 249.758125 
 L 321.513538 249.758125 
 z
 " clip-path="url(#pd49cd94d5a)" style="fill: #6060c0; stroke: #6060c0; stroke-width: 0.183352; stroke-linejoin: miter"/>
    </g>
    <g id="patch_161">
     <path d="M 323.251426 249.758125 
 L 324.989314 249.758125 
 L 324.989314 249.758125 
 L 323.251426 249.758125 
 z
 " clip-path="url(#pd49cd94d5a)" style="fill: #6060c0; stroke: #6060c0; stroke-width: 0.183352; stroke-linejoin: miter"/>
    </g>
    <g id="patch_162">
     <path d="M 324.989314 249.758125 
 L 326.727202 249.758125 
 L 326.727202 249.758125 
 L 324.989314 249.758125 
 z
 " clip-path="url(#pd49cd94d5a)" style="fill: #6060c0; stroke: #6060c0; stroke-width: 0.183352; stroke-linejoin: miter"/>
    </g>
    <g id="patch_163">
     <path d="M 326.727202 249.758125 
 L 328.46509 249.758125 
 L 328.46509 249.758125 
 L 326.727202 249.758125 
 z
 " clip-path="url(#pd49cd94d5a)" style="fill: #6060c0; stroke: #6060c0; stroke-width: 0.183352; stroke-linejoin: miter"/>
    </g>
    <g id="patch_164">
     <path d="M 328.46509 249.758125 
 L 330.202978 249.758125 
 L 330.202978 249.758125 
 L 328.46509 249.758125 
 z
 " clip-path="url(#pd49cd94d5a)" style="fill: #6060c0; stroke: #6060c0; stroke-width: 0.183352; stroke-linejoin: miter"/>
    </g>
    <g id="patch_165">
     <path d="M 330.202978 249.758125 
 L 331.940867 249.758125 
 L 331.940867 249.758125 
 L 330.202978 249.758125 
 z
 " clip-path="url(#pd49cd94d5a)" style="fill: #6060c0; stroke: #6060c0; stroke-width: 0.183352; stroke-linejoin: miter"/>
    </g>
    <g id="patch_166">
     <path d="M 331.940867 249.758125 
 L 333.678755 249.758125 
 L 333.678755 249.758125 
 L 331.940867 249.758125 
 z
 " clip-path="url(#pd49cd94d5a)" style="fill: #6060c0; stroke: #6060c0; stroke-width: 0.183352; stroke-linejoin: miter"/>
    </g>
    <g id="patch_167">
     <path d="M 333.678755 249.758125 
 L 335.416643 249.758125 
 L 335.416643 249.758125 
 L 333.678755 249.758125 
 z
 " clip-path="url(#pd49cd94d5a)" style="fill: #6060c0; stroke: #6060c0; stroke-width: 0.183352; stroke-linejoin: miter"/>
    </g>
    <g id="patch_168">
     <path d="M 335.416643 249.758125 
 L 337.154531 249.758125 
 L 337.154531 208.340982 
 L 335.416643 208.340982 
 z
 " clip-path="url(#pd49cd94d5a)" style="fill: #6060c0; stroke: #6060c0; stroke-width: 0.183352; stroke-linejoin: miter"/>
    </g>
    <g id="line2d_23">
     <path d="M 48.665097 230.107313 
 L 53.014184 226.225815 
 L 57.363271 222.026821 
 L 63.162053 216.045034 
 L 71.860227 206.638258 
 L 79.108705 198.873501 
 L 83.457792 194.45192 
 L 87.806879 190.328984 
 L 92.155966 186.599113 
 L 95.055358 184.374543 
 L 97.954749 182.387521 
 L 100.85414 180.659436 
 L 103.753531 179.208917 
 L 106.652923 178.05136 
 L 109.552314 177.198424 
 L 112.451705 176.657538 
 L 115.351097 176.431429 
 L 118.250488 176.517722 
 L 121.149879 176.908649 
 L 124.049271 177.590921 
 L 126.948662 178.54579 
 L 129.848053 179.749348 
 L 132.747444 181.173054 
 L 137.096531 183.649692 
 L 141.445618 186.427744 
 L 150.143792 192.387505 
 L 157.39227 197.225791 
 L 161.741357 199.890749 
 L 166.090444 202.311344 
 L 170.439531 204.462842 
 L 174.788618 206.34278 
 L 179.137705 207.966712 
 L 183.486792 209.363109 
 L 189.285575 210.933862 
 L 195.084357 212.254926 
 L 202.332836 213.673672 
 L 211.03101 215.147388 
 L 218.279488 216.175587 
 L 224.07827 216.801209 
 L 229.877053 217.181958 
 L 234.22614 217.277468 
 L 240.024923 217.147615 
 L 245.823705 216.78012 
 L 257.42127 215.942778 
 L 261.770357 215.876353 
 L 266.119444 216.09815 
 L 269.018836 216.446727 
 L 271.918227 216.976684 
 L 274.817618 217.698386 
 L 277.717009 218.614741 
 L 280.616401 219.720931 
 L 283.515792 221.004618 
 L 287.864879 223.21934 
 L 292.213966 225.701014 
 L 300.91214 231.033754 
 L 306.710922 234.513687 
 L 311.060009 236.930125 
 L 315.409096 239.111953 
 L 319.758183 241.025145 
 L 324.10727 242.659807 
 L 328.456357 244.025963 
 L 332.805444 245.147875 
 L 337.154531 246.058025 
 L 337.154531 246.058025 
 " clip-path="url(#pd49cd94d5a)" style="fill: none; stroke: #b91c38; stroke-width: 1.5; stroke-linecap: square"/>
    </g>
    <g id="patch_169">
     <path d="M 34.240625 249.758125 
 L 34.240625 32.318125 
 " style="fill: none; stroke: #30363d; stroke-width: 0.8; stroke-linejoin: miter; stroke-linecap: square"/>
    </g>
    <g id="patch_170">
     <path d="M 369.040625 249.758125 
 L 369.040625 32.318125 
 " style="fill: none; stroke: #30363d; stroke-width: 0.8; stroke-linejoin: miter; stroke-linecap: square"/>
    </g>
    <g id="patch_171">
     <path d="M 34.240625 249.758125 
 L 369.040625 249.758125 
 " style="fill: none; stroke: #30363d; stroke-width: 0.8; stroke-linejoin: miter; stroke-linecap: square"/>
    </g>
    <g id="patch_172">
     <path d="M 34.240625 32.318125 
 L 369.040625 32.318125 
 " style="fill: none; stroke: #30363d; stroke-width: 0.8; stroke-linejoin: miter; stroke-linecap: square"/>
    </g>
    <g id="text_13">
     <!-- Type-token ratio distribution -->
     <g transform="translate(117.082813 16.318125)scale(0.12 -0.12)">
      <defs>
       <path id="DejaVuSans-54" d="M -19 4666 
 L 3928 4666 
 L 3928 4134 
 L 2272 4134 
 L 2272 0 
 L 1638 0 
 L 1638 4134 
 L -19 4134 
 L -19 4666 
 z
 " transform="scale(0.015625)"/>
       <path id="DejaVuSans-79" d="M 2059 -325 
 Q 1816 -950 1584 -1140 
 Q 1353 -1331 966 -1331 
 L 506 -1331 
 L 506 -850 
 L 844 -850 
 Q 1081 -850 1212 -737 
 Q 1344 -625 1503 -206 
 L 1606 56 
 L 191 3500 
 L 800 3500 
 L 1894 763 
 L 2988 3500 
 L 3597 3500 
 L 2059 -325 
 z
 " transform="scale(0.015625)"/>
       <path id="DejaVuSans-70" d="M 1159 525 
 L 1159 -1331 
 L 581 -1331 
 L 581 3500 
 L 1159 3500 
 L 1159 2969 
 Q 1341 3281 1617 3432 
 Q 1894 3584 2278 3584 
 Q 2916 3584 3314 3078 
 Q 3713 2572 3713 1747 
 Q 3713 922 3314 415 
 Q 2916 -91 2278 -91 
 Q 1894 -91 1617 61 
 Q 1341 213 1159 525 
 z
 M 3116 1747 
 Q 3116 2381 2855 2742 
 Q 2594 3103 2138 3103 
 Q 1681 3103 1420 2742 
 Q 1159 2381 1159 1747 
 Q 1159 1113 1420 752 
 Q 1681 391 2138 391 
 Q 2594 391 2855 752 
 Q 3116 1113 3116 1747 
 z
 " transform="scale(0.015625)"/>
       <path id="DejaVuSans-65" d="M 3597 1894 
 L 3597 1613 
 L 953 1613 
 Q 991 1019 1311 708 
 Q 1631 397 2203 397 
 Q 2534 397 2845 478 
 Q 3156 559 3463 722 
 L 3463 178 
 Q 3153 47 2828 -22 
 Q 2503 -91 2169 -91 
 Q 1331 -91 842 396 
 Q 353 884 353 1716 
 Q 353 2575 817 3079 
 Q 1281 3584 2069 3584 
 Q 2775 3584 3186 3129 
 Q 3597 2675 3597 1894 
 z
 M 3022 2063 
 Q 3016 2534 2758 2815 
 Q 2500 3097 2075 3097 
 Q 1594 3097 1305 2825 
 Q 1016 2553 972 2059 
 L 3022 2063 
 z
 " transform="scale(0.015625)"/>
       <path id="DejaVuSans-2d" d="M 313 2009 
 L 1997 2009 
 L 1997 1497 
 L 313 1497 
 L 313 2009 
 z
 " transform="scale(0.015625)"/>
       <path id="DejaVuSans-6b" d="M 581 4863 
 L 1159 4863 
 L 1159 1991 
 L 2875 3500 
 L 3609 3500 
 L 1753 1863 
 L 3688 0 
 L 2938 0 
 L 1159 1709 
 L 1159 0 
 L 581 0 
 L 581 4863 
 z
 " transform="scale(0.015625)"/>
       <path id="DejaVuSans-20" transform="scale(0.015625)"/>
       <path id="DejaVuSans-72" d="M 2631 2963 
 Q 2534 3019 2420 3045 
 Q 2306 3072 2169 3072 
 Q 1681 3072 1420 2755 
 Q 1159 2438 1159 1844 
 L 1159 0 
 L 581 0 
 L 581 3500 
 L 1159 3500 
 L 1159 2956 
 Q 1341 3275 1631 3429 
 Q 1922 3584 2338 3584 
 Q 2397 3584 2469 3576 
 Q 2541 3569 2628 3553 
 L 2631 2963 
 z
 " transform="scale(0.015625)"/>
       <path id="DejaVuSans-61" d="M 2194 1759 
 Q 1497 1759 1228 1600 
 Q 959 1441 959 1056 
 Q 959 750 1161 570 
 Q 1363 391 1709 391 
 Q 2188 391 2477 730 
 Q 2766 1069 2766 1631 
 L 2766 1759 
 L 2194 1759 
 z
 M 3341 1997 
 L 3341 0 
 L 2766 0 
 L 2766 531 
 Q 2569 213 2275 61 
 Q 1981 -91 1556 -91 
 Q 1019 -91 701 211 
 Q 384 513 384 1019 
 Q 384 1609 779 1909 
 Q 1175 2209 1959 2209 
 L 2766 2209 
 L 2766 2266 
 Q 2766 2663 2505 2880 
 Q 2244 3097 1772 3097 
 Q 1472 3097 1187 3025 
 Q 903 2953 641 2809 
 L 641 3341 
 Q 956 3463 1253 3523 
 Q 1550 3584 1831 3584 
 Q 2591 3584 2966 3190 
 Q 3341 2797 3341 1997 
 z
 " transform="scale(0.015625)"/>
       <path id="DejaVuSans-69" d="M 603 3500 
 L 1178 3500 
 L 1178 0 
 L 603 0 
 L 603 3500 
 z
 M 603 4863 
 L 1178 4863 
 L 1178 4134 
 L 603 4134 
 L 603 4863 
 z
 " transform="scale(0.015625)"/>
       <path id="DejaVuSans-64" d="M 2906 2969 
 L 2906 4863 
 L 3481 4863 
 L 3481 0 
 L 2906 0 
 L 2906 525 
 Q 2725 213 2448 61 
 Q 2172 -91 1784 -91 
 Q 1150 -91 751 415 
 Q 353 922 353 1747 
 Q 353 2572 751 3078 
 Q 1150 3584 1784 3584 
 Q 2172 3584 2448 3432 
 Q 2725 3281 2906 2969 
 z
 M 947 1747 
 Q 947 1113 1208 752 
 Q 1469 391 1925 391 
 Q 2381 391 2643 752 
 Q 2906 1113 2906 1747 
 Q 2906 2381 2643 2742 
 Q 2381 3103 1925 3103 
 Q 1469 3103 1208 2742 
 Q 947 2381 947 1747 
 z
 " transform="scale(0.015625)"/>
       <path id="DejaVuSans-73" d="M 2834 3397 
 L 2834 2853 
 Q 2591 2978 2328 3040 
 Q 2066 3103 1784 3103 
 Q 1356 3103 1142 2972 
 Q 928 2841 928 2578 
 Q 928 2378 1081 2264 
 Q 1234 2150 1697 2047 
 L 1894 2003 
 Q 2506 1872 2764 1633 
 Q 3022 1394 3022 966 
 Q 3022 478 2636 193 
 Q 2250 -91 1575 -91 
 Q 1294 -91 989 -36 
 Q 684 19 347 128 
 L 347 722 
 Q 666 556 975 473 
 Q 1284 391 1588 391 
 Q 1994 391 2212 530 
 Q 2431 669 2431 922 
 Q 2431 1156 2273 1281 
 Q 2116 1406 1581 1522 
 L 1381 1569 
 Q 847 1681 609 1914 
 Q 372 2147 372 2553 
 Q 372 3047 722 3315 
 Q 1072 3584 1716 3584 
 Q 2034 3584 2315 3537 
 Q 2597 3491 2834 3397 
 z
 " transform="scale(0.015625)"/>
       <path id="DejaVuSans-62" d="M 3116 1747 
 Q 3116 2381 2855 2742 
 Q 2594 3103 2138 3103 
 Q 1681 3103 1420 2742 
 Q 1159 2381 1159 1747 
 Q 1159 1113 1420 752 
 Q 1681 391 2138 391 
 Q 2594 391 2855 752 
 Q 3116 1113 3116 1747 
 z
 M 1159 2969 
 Q 1341 3281 1617 3432 
 Q 1894 3584 2278 3584 
 Q 2916 3584 3314 3078 
 Q 3713 2572 3713 1747 
 Q 3713 922 3314 415 
 Q 2916 -91 2278 -91 
 Q 1894 -91 1617 61 
 Q 1341 213 1159 525 
 L 1159 0 
 L 581 0 
 L 581 4863 
 L 1159 4863 
 L 1159 2969 
 z
 " transform="scale(0.015625)"/>
      </defs>
      <use xlink:href="#DejaVuSans-54"/>
      <use xlink:href="#DejaVuSans-79" x="45.458984"/>
      <use xlink:href="#DejaVuSans-70" x="104.638672"/>
      <use xlink:href="#DejaVuSans-65" x="168.115234"/>
      <use xlink:href="#DejaVuSans-2d" x="229.638672"/>
      <use xlink:href="#DejaVuSans-74" x="265.722656"/>
      <use xlink:href="#DejaVuSans-6f" x="304.931641"/>
      <use xlink:href="#DejaVuSans-6b" x="366.113281"/>
      <use xlink:href="#DejaVuSans-65" x="420.398438"/>
      <use xlink:href="#DejaVuSans-6e" x="481.921875"/>
      <use xlink:href="#DejaVuSans-20" x="545.300781"/>
      <use xlink:href="#DejaVuSans-72" x="577.087891"/>
      <use xlink:href="#DejaVuSans-61" x="618.201172"/>
      <use xlink:href="#DejaVuSans-74" x="679.480469"/>
      <use xlink:href="#DejaVuSans-69" x="718.689453"/>
      <use xlink:href="#DejaVuSans-6f" x="746.472656"/>
      <use xlink:href="#DejaVuSans-20" x="807.654297"/>
      <use xlink:href="#DejaVuSans-64" x="839.441406"/>
      <use xlink:href="#DejaVuSans-69" x="902.917969"/>
      <use xlink:href="#DejaVuSans-73" x="930.701172"/>
      <use xlink:href="#DejaVuSans-74" x="982.800781"/>
      <use xlink:href="#DejaVuSans-72" x="1022.009766"/>
      <use xlink:href="#DejaVuSans-69" x="1063.123047"/>
      <use xlink:href="#DejaVuSans-62" x="1090.90625"/>
      <use xlink:href="#DejaVuSans-75" x="1154.382812"/>
      <use xlink:href="#DejaVuSans-74" x="1217.761719"/>
      <use xlink:href="#DejaVuSans-69" x="1256.970703"/>
      <use xlink:href="#DejaVuSans-6f" x="1284.753906"/>
      <use xlink:href="#DejaVuSans-6e" x="1345.935547"/>
     </g>
    </g>
    <g id="legend_1">
     <g id="patch_173">
      <path d="M 299.942188 69.674375 
 L 362.040625 69.674375 
 Q 364.040625 69.674375 364.040625 67.674375 
 L 364.040625 39.318125 
 Q 364.040625 37.318125 362.040625 37.318125 
 L 299.942188 37.318125 
 Q 297.942188 37.318125 297.942188 39.318125 
 L 297.942188 67.674375 
 Q 297.942188 69.674375 299.942188 69.674375 
 z
 " style="fill: #161b22; opacity: 0.8; stroke: #30363d;; stroke-linejoin: miter"/>
     </g>
     <g id="line2d_24">
      <path d="M 301.942188 45.416562 
 L 311.942188 45.416562 
 L 321.942188 45.416562 
 " style="fill: none; stroke: #b91c38; stroke-width: 1.5; stroke-linecap: square"/>
     </g>
     <g id="text_14">
      <!-- KDE -->
      <g transform="translate(329.942188 48.916562)scale(0.1 -0.1)">
       <defs>
        <path id="DejaVuSans-4b" d="M 628 4666 
 L 1259 4666 
 L 1259 2694 
 L 3353 4666 
 L 4166 4666 
 L 1850 2491 
 L 4331 0 
 L 3500 0 
 L 1259 2247 
 L 1259 0 
 L 628 0 
 L 628 4666 
 z
 " transform="scale(0.015625)"/>
        <path id="DejaVuSans-44" d="M 1259 4147 
 L 1259 519 
 L 2022 519 
 Q 2988 519 3436 956 
 Q 3884 1394 3884 2338 
 Q 3884 3275 3436 3711 
 Q 2988 4147 2022 4147 
 L 1259 4147 
 z
 M 628 4666 
 L 1925 4666 
 Q 3281 4666 3915 4102 
 Q 4550 3538 4550 2338 
 Q 4550 1131 3912 565 
 Q 3275 0 1925 0 
 L 628 0 
 L 628 4666 
 z
 " transform="scale(0.015625)"/>
        <path id="DejaVuSans-45" d="M 628 4666 
 L 3578 4666 
 L 3578 4134 
 L 1259 4134 
 L 1259 2753 
 L 3481 2753 
 L 3481 2222 
 L 1259 2222 
 L 1259 531 
 L 3634 531 
 L 3634 0 
 L 628 0 
 L 628 4666 
 z
 " transform="scale(0.015625)"/>
       </defs>
       <use xlink:href="#DejaVuSans-4b"/>
       <use xlink:href="#DejaVuSans-44" x="65.576172"/>
       <use xlink:href="#DejaVuSans-45" x="142.578125"/>
      </g>
     </g>
     <g id="patch_174">
      <path d="M 301.942188 63.594687 
 L 321.942188 63.594687 
 L 321.942188 56.594687 
 L 301.942188 56.594687 
 z
 " style="fill: #6060c0; stroke: #6060c0; stroke-width: 0.183352; stroke-linejoin: miter"/>
     </g>
     <g id="text_15">
      <!-- Books -->
      <g transform="translate(329.942188 63.594687)scale(0.1 -0.1)">
       <defs>
        <path id="DejaVuSans-42" d="M 1259 2228 
 L 1259 519 
 L 2272 519 
 Q 2781 519 3026 730 
 Q 3272 941 3272 1375 
 Q 3272 1813 3026 2020 
 Q 2781 2228 2272 2228 
 L 1259 2228 
 z
 M 1259 4147 
 L 1259 2741 
 L 2194 2741 
 Q 2656 2741 2882 2914 
 Q 3109 3088 3109 3444 
 Q 3109 3797 2882 3972 
 Q 2656 4147 2194 4147 
 L 1259 4147 
 z
 M 628 4666 
 L 2241 4666 
 Q 2963 4666 3353 4366 
 Q 3744 4066 3744 3513 
 Q 3744 3084 3544 2831 
 Q 3344 2578 2956 2516 
 Q 3422 2416 3680 2098 
 Q 3938 1781 3938 1306 
 Q 3938 681 3513 340 
 Q 3088 0 2303 0 
 L 628 0 
 L 628 4666 
 z
 " transform="scale(0.015625)"/>
       </defs>
       <use xlink:href="#DejaVuSans-42"/>
       <use xlink:href="#DejaVuSans-6f" x="68.603516"/>
       <use xlink:href="#DejaVuSans-6f" x="129.785156"/>
       <use xlink:href="#DejaVuSans-6b" x="190.966797"/>
       <use xlink:href="#DejaVuSans-73" x="248.876953"/>
      </g>
     </g>
    </g>
   </g>
  </g>
  <defs>
   <clipPath id="pd49cd94d5a">
    <rect x="34.240625" y="32.318125" width="334.8" height="217.44"/>
   </clipPath>
  </defs>
 </svg>
