<?xml version="1.0" encoding="utf-8" standalone="no"?>
 <!DOCTYPE svg PUBLIC "-//W3C//DTD SVG 1.1//EN"
   "http://www.w3.org/Graphics/SVG/1.1/DTD/svg11.dtd">
 <svg xmlns:xlink="http://www.w3.org/1999/xlink" width="382.25pt" height="219.27625pt" viewBox="0 0 382.25 219.27625" xmlns="http://www.w3.org/2000/svg" version="1.1">
  <metadata>
   <rdf:RDF xmlns:dc="http://purl.org/dc/elements/1.1/" xmlns:cc="http://creativecommons.org/ns#" xmlns:rdf="http://www.w3.org/1999/02/22-rdf-syntax-ns#">
    <cc:Work>
     <dc:type rdf:resource="http://purl.org/dc/dcmitype/StillImage"/>
     <dc:date>2022-08-18T00:08:16.349251</dc:date>
     <dc:format>image/svg+xml</dc:format>
     <dc:creator>
      <cc:Agent>
       <dc:title>Matplotlib v3.5.2, https://matplotlib.org/</dc:title>
      </cc:Agent>
     </dc:creator>
    </cc:Work>
   </rdf:RDF>
  </metadata>
  <defs>
   <style type="text/css">*{stroke-linejoin: round; stroke-linecap: butt; fill: #c9d1d9;}</style>
  </defs>
  <g id="figure_1">
   <g id="patch_1">
    <path d="M -0 219.27625 
 L 382.25 219.27625 
 L 382.25 0 
 L -0 0 
 L -0 219.27625 
 z
 " style="fill: none"/>
   </g>
   <g id="axes_1">
    <g id="patch_2">
     <path d="M 40.25 195.398125 
 L 375.05 195.398125 
 L 375.05 32.318125 
 L 40.25 32.318125 
 z
 " style="fill: #161b22"/>
    </g>
    <g id="matplotlib.axis_1">
     <g id="xtick_1">
      <g id="line2d_1">
       <path d="M 99.451384 195.398125 
 L 99.451384 32.318125 
 " clip-path="url(#p5f2f7d79d8)" style="fill: none; stroke-dasharray: 2.96,1.28; stroke-dashoffset: 0; stroke: #b0b0b0; stroke-opacity: 0.25; stroke-width: 0.8"/>
      </g>
      <g id="line2d_2">
       <defs>
        <path id="m7fd0ebf18b" d="M 0 0 
 L 0 3.5 
 " style="stroke: #30363d; stroke-width: 0.8"/>
       </defs>
       <g>
        <use xlink:href="#m7fd0ebf18b" x="99.451384" y="195.398125" style="stroke: #30363d; stroke-width: 0.8"/>
       </g>
      </g>
      <g id="text_1">
       <!-- 1980 -->
       <g transform="translate(86.726384 209.996563)scale(0.1 -0.1)">
        <defs>
         <path id="DejaVuSans-31" d="M 794 531 
 L 1825 531 
 L 1825 4091 
 L 703 3866 
 L 703 4441 
 L 1819 4666 
 L 2450 4666 
 L 2450 531 
 L 3481 531 
 L 3481 0 
 L 794 0 
 L 794 531 
 z
 " transform="scale(0.015625)"/>
         <path id="DejaVuSans-39" d="M 703 97 
 L 703 672 
 Q 941 559 1184 500 
 Q 1428 441 1663 441 
 Q 2288 441 2617 861 
 Q 2947 1281 2994 2138 
 Q 2813 1869 2534 1725 
 Q 2256 1581 1919 1581 
 Q 1219 1581 811 2004 
 Q 403 2428 403 3163 
 Q 403 3881 828 4315 
 Q 1253 4750 1959 4750 
 Q 2769 4750 3195 4129 
 Q 3622 3509 3622 2328 
 Q 3622 1225 3098 567 
 Q 2575 -91 1691 -91 
 Q 1453 -91 1209 -44 
 Q 966 3 703 97 
 z
 M 1959 2075 
 Q 2384 2075 2632 2365 
 Q 2881 2656 2881 3163 
 Q 2881 3666 2632 3958 
 Q 2384 4250 1959 4250 
 Q 1534 4250 1286 3958 
 Q 1038 3666 1038 3163 
 Q 1038 2656 1286 2365 
 Q 1534 2075 1959 2075 
 z
 " transform="scale(0.015625)"/>
         <path id="DejaVuSans-38" d="M 2034 2216 
 Q 1584 2216 1326 1975 
 Q 1069 1734 1069 1313 
 Q 1069 891 1326 650 
 Q 1584 409 2034 409 
 Q 2484 409 2743 651 
 Q 3003 894 3003 1313 
 Q 3003 1734 2745 1975 
 Q 2488 2216 2034 2216 
 z
 M 1403 2484 
 Q 997 2584 770 2862 
 Q 544 3141 544 3541 
 Q 544 4100 942 4425 
 Q 1341 4750 2034 4750 
 Q 2731 4750 3128 4425 
 Q 3525 4100 3525 3541 
 Q 3525 3141 3298 2862 
 Q 3072 2584 2669 2484 
 Q 3125 2378 3379 2068 
 Q 3634 1759 3634 1313 
 Q 3634 634 3220 271 
 Q 2806 -91 2034 -91 
 Q 1263 -91 848 271 
 Q 434 634 434 1313 
 Q 434 1759 690 2068 
 Q 947 2378 1403 2484 
 z
 M 1172 3481 
 Q 1172 3119 1398 2916 
 Q 1625 2713 2034 2713 
 Q 2441 2713 2670 2916 
 Q 2900 3119 2900 3481 
 Q 2900 3844 2670 4047 
 Q 2441 4250 2034 4250 
 Q 1625 4250 1398 4047 
 Q 1172 3844 1172 3481 
 z
 " transform="scale(0.015625)"/>
         <path id="DejaVuSans-30" d="M 2034 4250 
 Q 1547 4250 1301 3770 
 Q 1056 3291 1056 2328 
 Q 1056 1369 1301 889 
 Q 1547 409 2034 409 
 Q 2525 409 2770 889 
 Q 3016 1369 3016 2328 
 Q 3016 3291 2770 3770 
 Q 2525 4250 2034 4250 
 z
 M 2034 4750 
 Q 2819 4750 3233 4129 
 Q 3647 3509 3647 2328 
 Q 3647 1150 3233 529 
 Q 2819 -91 2034 -91 
 Q 1250 -91 836 529 
 Q 422 1150 422 2328 
 Q 422 3509 836 4129 
 Q 1250 4750 2034 4750 
 z
 " transform="scale(0.015625)"/>
        </defs>
        <use xlink:href="#DejaVuSans-31"/>
        <use xlink:href="#DejaVuSans-39" x="63.623047"/>
        <use xlink:href="#DejaVuSans-38" x="127.246094"/>
        <use xlink:href="#DejaVuSans-30" x="190.869141"/>
       </g>
      </g>
     </g>
     <g id="xtick_2">
      <g id="line2d_3">
       <path d="M 162.630659 195.398125 
 L 162.630659 32.318125 
 " clip-path="url(#p5f2f7d79d8)" style="fill: none; stroke-dasharray: 2.96,1.28; stroke-dashoffset: 0; stroke: #b0b0b0; stroke-opacity: 0.25; stroke-width: 0.8"/>
      </g>
      <g id="line2d_4">
       <g>
        <use xlink:href="#m7fd0ebf18b" x="162.630659" y="195.398125" style="stroke: #30363d; stroke-width: 0.8"/>
       </g>
      </g>
      <g id="text_2">
       <!-- 1990 -->
       <g transform="translate(149.905659 209.996563)scale(0.1 -0.1)">
        <use xlink:href="#DejaVuSans-31"/>
        <use xlink:href="#DejaVuSans-39" x="63.623047"/>
        <use xlink:href="#DejaVuSans-39" x="127.246094"/>
        <use xlink:href="#DejaVuSans-30" x="190.869141"/>
       </g>
      </g>
     </g>
     <g id="xtick_3">
      <g id="line2d_5">
       <path d="M 225.792639 195.398125 
 L 225.792639 32.318125 
 " clip-path="url(#p5f2f7d79d8)" style="fill: none; stroke-dasharray: 2.96,1.28; stroke-dashoffset: 0; stroke: #b0b0b0; stroke-opacity: 0.25; stroke-width: 0.8"/>
      </g>
      <g id="line2d_6">
       <g>
        <use xlink:href="#m7fd0ebf18b" x="225.792639" y="195.398125" style="stroke: #30363d; stroke-width: 0.8"/>
       </g>
      </g>
      <g id="text_3">
       <!-- 2000 -->
       <g transform="translate(213.067639 209.996563)scale(0.1 -0.1)">
        <defs>
         <path id="DejaVuSans-32" d="M 1228 531 
 L 3431 531 
 L 3431 0 
 L 469 0 
 L 469 531 
 Q 828 903 1448 1529 
 Q 2069 2156 2228 2338 
 Q 2531 2678 2651 2914 
 Q 2772 3150 2772 3378 
 Q 2772 3750 2511 3984 
 Q 2250 4219 1831 4219 
 Q 1534 4219 1204 4116 
 Q 875 4013 500 3803 
 L 500 4441 
 Q 881 4594 1212 4672 
 Q 1544 4750 1819 4750 
 Q 2544 4750 2975 4387 
 Q 3406 4025 3406 3419 
 Q 3406 3131 3298 2873 
 Q 3191 2616 2906 2266 
 Q 2828 2175 2409 1742 
 Q 1991 1309 1228 531 
 z
 " transform="scale(0.015625)"/>
        </defs>
        <use xlink:href="#DejaVuSans-32"/>
        <use xlink:href="#DejaVuSans-30" x="63.623047"/>
        <use xlink:href="#DejaVuSans-30" x="127.246094"/>
        <use xlink:href="#DejaVuSans-30" x="190.869141"/>
       </g>
      </g>
     </g>
     <g id="xtick_4">
      <g id="line2d_7">
       <path d="M 288.971913 195.398125 
 L 288.971913 32.318125 
 " clip-path="url(#p5f2f7d79d8)" style="fill: none; stroke-dasharray: 2.96,1.28; stroke-dashoffset: 0; stroke: #b0b0b0; stroke-opacity: 0.25; stroke-width: 0.8"/>
      </g>
      <g id="line2d_8">
       <g>
        <use xlink:href="#m7fd0ebf18b" x="288.971913" y="195.398125" style="stroke: #30363d; stroke-width: 0.8"/>
       </g>
      </g>
      <g id="text_4">
       <!-- 2010 -->
       <g transform="translate(276.246913 209.996563)scale(0.1 -0.1)">
        <use xlink:href="#DejaVuSans-32"/>
        <use xlink:href="#DejaVuSans-30" x="63.623047"/>
        <use xlink:href="#DejaVuSans-31" x="127.246094"/>
        <use xlink:href="#DejaVuSans-30" x="190.869141"/>
       </g>
      </g>
     </g>
     <g id="xtick_5">
      <g id="line2d_9">
       <path d="M 352.133893 195.398125 
 L 352.133893 32.318125 
 " clip-path="url(#p5f2f7d79d8)" style="fill: none; stroke-dasharray: 2.96,1.28; stroke-dashoffset: 0; stroke: #b0b0b0; stroke-opacity: 0.25; stroke-width: 0.8"/>
      </g>
      <g id="line2d_10">
       <g>
        <use xlink:href="#m7fd0ebf18b" x="352.133893" y="195.398125" style="stroke: #30363d; stroke-width: 0.8"/>
       </g>
      </g>
      <g id="text_5">
       <!-- 2020 -->
       <g transform="translate(339.408893 209.996563)scale(0.1 -0.1)">
        <use xlink:href="#DejaVuSans-32"/>
        <use xlink:href="#DejaVuSans-30" x="63.623047"/>
        <use xlink:href="#DejaVuSans-32" x="127.246094"/>
        <use xlink:href="#DejaVuSans-30" x="190.869141"/>
       </g>
      </g>
     </g>
    </g>
    <g id="matplotlib.axis_2">
     <g id="ytick_1">
      <g id="line2d_11">
       <path d="M 40.25 155.039943 
 L 375.05 155.039943 
 " clip-path="url(#p5f2f7d79d8)" style="fill: none; stroke-dasharray: 2.96,1.28; stroke-dashoffset: 0; stroke: #b0b0b0; stroke-opacity: 0.25; stroke-width: 0.8"/>
      </g>
      <g id="line2d_12">
       <defs>
        <path id="m1c084d4b59" d="M 0 0 
 L -3.5 0 
 " style="stroke: #30363d; stroke-width: 0.8"/>
       </defs>
       <g>
        <use xlink:href="#m1c084d4b59" x="40.25" y="155.039943" style="stroke: #30363d; stroke-width: 0.8"/>
       </g>
      </g>
      <g id="text_6">
       <!-- Child -->
       <g transform="translate(8.025 158.839162)scale(0.1 -0.1)">
        <defs>
         <path id="DejaVuSans-43" d="M 4122 4306 
 L 4122 3641 
 Q 3803 3938 3442 4084 
 Q 3081 4231 2675 4231 
 Q 1875 4231 1450 3742 
 Q 1025 3253 1025 2328 
 Q 1025 1406 1450 917 
 Q 1875 428 2675 428 
 Q 3081 428 3442 575 
 Q 3803 722 4122 1019 
 L 4122 359 
 Q 3791 134 3420 21 
 Q 3050 -91 2638 -91 
 Q 1578 -91 968 557 
 Q 359 1206 359 2328 
 Q 359 3453 968 4101 
 Q 1578 4750 2638 4750 
 Q 3056 4750 3426 4639 
 Q 3797 4528 4122 4306 
 z
 " transform="scale(0.015625)"/>
         <path id="DejaVuSans-68" d="M 3513 2113 
 L 3513 0 
 L 2938 0 
 L 2938 2094 
 Q 2938 2591 2744 2837 
 Q 2550 3084 2163 3084 
 Q 1697 3084 1428 2787 
 Q 1159 2491 1159 1978 
 L 1159 0 
 L 581 0 
 L 581 4863 
 L 1159 4863 
 L 1159 2956 
 Q 1366 3272 1645 3428 
 Q 1925 3584 2291 3584 
 Q 2894 3584 3203 3211 
 Q 3513 2838 3513 2113 
 z
 " transform="scale(0.015625)"/>
         <path id="DejaVuSans-69" d="M 603 3500 
 L 1178 3500 
 L 1178 0 
 L 603 0 
 L 603 3500 
 z
 M 603 4863 
 L 1178 4863 
 L 1178 4134 
 L 603 4134 
 L 603 4863 
 z
 " transform="scale(0.015625)"/>
         <path id="DejaVuSans-6c" d="M 603 4863 
 L 1178 4863 
 L 1178 0 
 L 603 0 
 L 603 4863 
 z
 " transform="scale(0.015625)"/>
         <path id="DejaVuSans-64" d="M 2906 2969 
 L 2906 4863 
 L 3481 4863 
 L 3481 0 
 L 2906 0 
 L 2906 525 
 Q 2725 213 2448 61 
 Q 2172 -91 1784 -91 
 Q 1150 -91 751 415 
 Q 353 922 353 1747 
 Q 353 2572 751 3078 
 Q 1150 3584 1784 3584 
 Q 2172 3584 2448 3432 
 Q 2725 3281 2906 2969 
 z
 M 947 1747 
 Q 947 1113 1208 752 
 Q 1469 391 1925 391 
 Q 2381 391 2643 752 
 Q 2906 1113 2906 1747 
 Q 2906 2381 2643 2742 
 Q 2381 3103 1925 3103 
 Q 1469 3103 1208 2742 
 Q 947 2381 947 1747 
 z
 " transform="scale(0.015625)"/>
        </defs>
        <use xlink:href="#DejaVuSans-43"/>
        <use xlink:href="#DejaVuSans-68" x="69.824219"/>
        <use xlink:href="#DejaVuSans-69" x="133.203125"/>
        <use xlink:href="#DejaVuSans-6c" x="160.986328"/>
        <use xlink:href="#DejaVuSans-64" x="188.769531"/>
       </g>
      </g>
     </g>
     <g id="ytick_2">
      <g id="line2d_13">
       <path d="M 40.25 72.676307 
 L 375.05 72.676307 
 " clip-path="url(#p5f2f7d79d8)" style="fill: none; stroke-dasharray: 2.96,1.28; stroke-dashoffset: 0; stroke: #b0b0b0; stroke-opacity: 0.25; stroke-width: 0.8"/>
      </g>
      <g id="line2d_14">
       <g>
        <use xlink:href="#m1c084d4b59" x="40.25" y="72.676307" style="stroke: #30363d; stroke-width: 0.8"/>
       </g>
      </g>
      <g id="text_7">
       <!-- Adult -->
       <g transform="translate(7.2 76.475526)scale(0.1 -0.1)">
        <defs>
         <path id="DejaVuSans-41" d="M 2188 4044 
 L 1331 1722 
 L 3047 1722 
 L 2188 4044 
 z
 M 1831 4666 
 L 2547 4666 
 L 4325 0 
 L 3669 0 
 L 3244 1197 
 L 1141 1197 
 L 716 0 
 L 50 0 
 L 1831 4666 
 z
 " transform="scale(0.015625)"/>
         <path id="DejaVuSans-75" d="M 544 1381 
 L 544 3500 
 L 1119 3500 
 L 1119 1403 
 Q 1119 906 1312 657 
 Q 1506 409 1894 409 
 Q 2359 409 2629 706 
 Q 2900 1003 2900 1516 
 L 2900 3500 
 L 3475 3500 
 L 3475 0 
 L 2900 0 
 L 2900 538 
 Q 2691 219 2414 64 
 Q 2138 -91 1772 -91 
 Q 1169 -91 856 284 
 Q 544 659 544 1381 
 z
 M 1991 3584 
 L 1991 3584 
 z
 " transform="scale(0.015625)"/>
         <path id="DejaVuSans-74" d="M 1172 4494 
 L 1172 3500 
 L 2356 3500 
 L 2356 3053 
 L 1172 3053 
 L 1172 1153 
 Q 1172 725 1289 603 
 Q 1406 481 1766 481 
 L 2356 481 
 L 2356 0 
 L 1766 0 
 Q 1100 0 847 248 
 Q 594 497 594 1153 
 L 594 3053 
 L 172 3053 
 L 172 3500 
 L 594 3500 
 L 594 4494 
 L 1172 4494 
 z
 " transform="scale(0.015625)"/>
        </defs>
        <use xlink:href="#DejaVuSans-41"/>
        <use xlink:href="#DejaVuSans-64" x="66.658203"/>
        <use xlink:href="#DejaVuSans-75" x="130.134766"/>
        <use xlink:href="#DejaVuSans-6c" x="193.513672"/>
        <use xlink:href="#DejaVuSans-74" x="221.296875"/>
       </g>
      </g>
     </g>
    </g>
    <g id="PolyCollection_1">
     <path d="M 93.12135 187.985398 
 L 93.12135 122.094489 
 L 86.825907 122.094489 
 L 86.825907 187.985398 
 L 93.12135 187.985398 
 z
 " clip-path="url(#p5f2f7d79d8)" style="fill: #a52040"/>
     <path d="M 99.434089 187.985398 
 L 99.434089 122.094489 
 L 93.138646 122.094489 
 L 93.138646 187.985398 
 L 99.434089 187.985398 
 z
 " clip-path="url(#p5f2f7d79d8)" style="fill: #a52040"/>
     <path d="M 105.764123 187.985398 
 L 105.764123 122.094489 
 L 99.451384 122.094489 
 L 99.451384 187.985398 
 L 105.764123 187.985398 
 z
 " clip-path="url(#p5f2f7d79d8)" style="fill: #a52040"/>
     <path d="M 112.076862 187.985398 
 L 112.076862 122.094489 
 L 105.781419 122.094489 
 L 105.781419 187.985398 
 L 112.076862 187.985398 
 z
 " clip-path="url(#p5f2f7d79d8)" style="fill: #a52040"/>
     <path d="M 124.70234 187.985398 
 L 124.70234 122.094489 
 L 118.406896 122.094489 
 L 118.406896 187.985398 
 L 124.70234 187.985398 
 z
 " clip-path="url(#p5f2f7d79d8)" style="fill: #a52040"/>
     <path d="M 137.345113 187.985398 
 L 137.345113 122.094489 
 L 131.049669 122.094489 
 L 131.049669 187.985398 
 L 137.345113 187.985398 
 z
 " clip-path="url(#p5f2f7d79d8)" style="fill: #a52040"/>
     <path d="M 143.657852 187.985398 
 L 143.657852 122.094489 
 L 137.362408 122.094489 
 L 137.362408 187.985398 
 L 143.657852 187.985398 
 z
 " clip-path="url(#p5f2f7d79d8)" style="fill: #a52040"/>
     <path d="M 149.970591 187.985398 
 L 149.970591 122.094489 
 L 143.675147 122.094489 
 L 143.675147 187.985398 
 L 149.970591 187.985398 
 z
 " clip-path="url(#p5f2f7d79d8)" style="fill: #a52040"/>
     <path d="M 156.300625 187.985398 
 L 156.300625 122.094489 
 L 149.987886 122.094489 
 L 149.987886 187.985398 
 L 156.300625 187.985398 
 z
 " clip-path="url(#p5f2f7d79d8)" style="fill: #a52040"/>
     <path d="M 162.613364 187.985398 
 L 162.613364 122.094489 
 L 156.31792 122.094489 
 L 156.31792 187.985398 
 L 162.613364 187.985398 
 z
 " clip-path="url(#p5f2f7d79d8)" style="fill: #a52040"/>
     <path d="M 168.926103 187.985398 
 L 168.926103 122.094489 
 L 162.630659 122.094489 
 L 162.630659 187.985398 
 L 168.926103 187.985398 
 z
 " clip-path="url(#p5f2f7d79d8)" style="fill: #a52040"/>
     <path d="M 175.238842 187.985398 
 L 175.238842 122.094489 
 L 168.943398 122.094489 
 L 168.943398 187.985398 
 L 175.238842 187.985398 
 z
 " clip-path="url(#p5f2f7d79d8)" style="fill: #a52040"/>
     <path d="M 181.568876 187.985398 
 L 181.568876 122.094489 
 L 175.256137 122.094489 
 L 175.256137 187.985398 
 L 181.568876 187.985398 
 z
 " clip-path="url(#p5f2f7d79d8)" style="fill: #a52040"/>
     <path d="M 194.194354 187.985398 
 L 194.194354 122.094489 
 L 187.89891 122.094489 
 L 187.89891 187.985398 
 L 194.194354 187.985398 
 z
 " clip-path="url(#p5f2f7d79d8)" style="fill: #a52040"/>
     <path d="M 200.507093 187.985398 
 L 200.507093 122.094489 
 L 194.211649 122.094489 
 L 194.211649 187.985398 
 L 200.507093 187.985398 
 z
 " clip-path="url(#p5f2f7d79d8)" style="fill: #a52040"/>
     <path d="M 206.837127 187.985398 
 L 206.837127 122.094489 
 L 200.524388 122.094489 
 L 200.524388 187.985398 
 L 206.837127 187.985398 
 z
 " clip-path="url(#p5f2f7d79d8)" style="fill: #a52040"/>
     <path d="M 219.462605 187.985398 
 L 219.462605 122.094489 
 L 213.167161 122.094489 
 L 213.167161 187.985398 
 L 219.462605 187.985398 
 z
 " clip-path="url(#p5f2f7d79d8)" style="fill: #a52040"/>
     <path d="M 225.775344 187.985398 
 L 225.775344 122.094489 
 L 219.4799 122.094489 
 L 219.4799 187.985398 
 L 225.775344 187.985398 
 z
 " clip-path="url(#p5f2f7d79d8)" style="fill: #a52040"/>
     <path d="M 232.105378 187.985398 
 L 232.105378 122.094489 
 L 225.792639 122.094489 
 L 225.792639 187.985398 
 L 232.105378 187.985398 
 z
 " clip-path="url(#p5f2f7d79d8)" style="fill: #a52040"/>
     <path d="M 238.418117 187.985398 
 L 238.418117 122.094489 
 L 232.122673 122.094489 
 L 232.122673 187.985398 
 L 238.418117 187.985398 
 z
 " clip-path="url(#p5f2f7d79d8)" style="fill: #a52040"/>
     <path d="M 244.730855 187.985398 
 L 244.730855 122.094489 
 L 238.435412 122.094489 
 L 238.435412 187.985398 
 L 244.730855 187.985398 
 z
 " clip-path="url(#p5f2f7d79d8)" style="fill: #a52040"/>
     <path d="M 251.043594 187.985398 
 L 251.043594 122.094489 
 L 244.748151 122.094489 
 L 244.748151 187.985398 
 L 251.043594 187.985398 
 z
 " clip-path="url(#p5f2f7d79d8)" style="fill: #a52040"/>
     <path d="M 257.373628 187.985398 
 L 257.373628 122.094489 
 L 251.06089 122.094489 
 L 251.06089 187.985398 
 L 257.373628 187.985398 
 z
 " clip-path="url(#p5f2f7d79d8)" style="fill: #a52040"/>
     <path d="M 269.999106 187.985398 
 L 269.999106 122.094489 
 L 263.703663 122.094489 
 L 263.703663 187.985398 
 L 269.999106 187.985398 
 z
 " clip-path="url(#p5f2f7d79d8)" style="fill: #a52040"/>
     <path d="M 276.311845 187.985398 
 L 276.311845 122.094489 
 L 270.016401 122.094489 
 L 270.016401 187.985398 
 L 276.311845 187.985398 
 z
 " clip-path="url(#p5f2f7d79d8)" style="fill: #a52040"/>
     <path d="M 282.641879 187.985398 
 L 282.641879 122.094489 
 L 276.32914 122.094489 
 L 276.32914 187.985398 
 L 282.641879 187.985398 
 z
 " clip-path="url(#p5f2f7d79d8)" style="fill: #a52040"/>
     <path d="M 288.954618 187.985398 
 L 288.954618 122.094489 
 L 282.659175 122.094489 
 L 282.659175 187.985398 
 L 288.954618 187.985398 
 z
 " clip-path="url(#p5f2f7d79d8)" style="fill: #a52040"/>
     <path d="M 295.267357 187.985398 
 L 295.267357 122.094489 
 L 288.971913 122.094489 
 L 288.971913 187.985398 
 L 295.267357 187.985398 
 z
 " clip-path="url(#p5f2f7d79d8)" style="fill: #a52040"/>
     <path d="M 301.580096 187.985398 
 L 301.580096 122.094489 
 L 295.284652 122.094489 
 L 295.284652 187.985398 
 L 301.580096 187.985398 
 z
 " clip-path="url(#p5f2f7d79d8)" style="fill: #a52040"/>
     <path d="M 307.91013 187.985398 
 L 307.91013 122.094489 
 L 301.597391 122.094489 
 L 301.597391 187.985398 
 L 307.91013 187.985398 
 z
 " clip-path="url(#p5f2f7d79d8)" style="fill: #a52040"/>
     <path d="M 314.222869 187.985398 
 L 314.222869 122.094489 
 L 307.927425 122.094489 
 L 307.927425 187.985398 
 L 314.222869 187.985398 
 z
 " clip-path="url(#p5f2f7d79d8)" style="fill: #a52040"/>
     <path d="M 320.535608 187.985398 
 L 320.535608 122.094489 
 L 314.240164 122.094489 
 L 314.240164 187.985398 
 L 320.535608 187.985398 
 z
 " clip-path="url(#p5f2f7d79d8)" style="fill: #a52040"/>
     <path d="M 326.848347 187.985398 
 L 326.848347 122.094489 
 L 320.552903 122.094489 
 L 320.552903 187.985398 
 L 326.848347 187.985398 
 z
 " clip-path="url(#p5f2f7d79d8)" style="fill: #a52040"/>
     <path d="M 339.49112 187.985398 
 L 339.49112 122.094489 
 L 333.195676 122.094489 
 L 333.195676 187.985398 
 L 339.49112 187.985398 
 z
 " clip-path="url(#p5f2f7d79d8)" style="fill: #a52040"/>
     <path d="M 345.803859 187.985398 
 L 345.803859 122.094489 
 L 339.508415 122.094489 
 L 339.508415 187.985398 
 L 345.803859 187.985398 
 z
 " clip-path="url(#p5f2f7d79d8)" style="fill: #a52040"/>
     <path d="M 352.116598 187.985398 
 L 352.116598 122.094489 
 L 345.821154 122.094489 
 L 345.821154 187.985398 
 L 352.116598 187.985398 
 z
 " clip-path="url(#p5f2f7d79d8)" style="fill: #a52040"/>
     <path d="M 143.657852 105.621761 
 L 143.657852 39.730852 
 L 137.362408 39.730852 
 L 137.362408 105.621761 
 L 143.657852 105.621761 
 z
 " clip-path="url(#p5f2f7d79d8)" style="fill: #404080"/>
     <path d="M 168.926103 105.621761 
 L 168.926103 39.730852 
 L 162.630659 39.730852 
 L 162.630659 105.621761 
 L 168.926103 105.621761 
 z
 " clip-path="url(#p5f2f7d79d8)" style="fill: #404080"/>
     <path d="M 194.194354 105.621761 
 L 194.194354 39.730852 
 L 187.89891 39.730852 
 L 187.89891 105.621761 
 L 194.194354 105.621761 
 z
 " clip-path="url(#p5f2f7d79d8)" style="fill: #404080"/>
     <path d="M 219.462605 105.621761 
 L 219.462605 39.730852 
 L 213.167161 39.730852 
 L 213.167161 105.621761 
 L 219.462605 105.621761 
 z
 " clip-path="url(#p5f2f7d79d8)" style="fill: #404080"/>
     <path d="M 238.418117 105.621761 
 L 238.418117 39.730852 
 L 232.122673 39.730852 
 L 232.122673 105.621761 
 L 238.418117 105.621761 
 z
 " clip-path="url(#p5f2f7d79d8)" style="fill: #404080"/>
     <path d="M 263.686367 105.621761 
 L 263.686367 39.730852 
 L 257.390924 39.730852 
 L 257.390924 105.621761 
 L 263.686367 105.621761 
 z
 " clip-path="url(#p5f2f7d79d8)" style="fill: #404080"/>
     <path d="M 282.641879 105.621761 
 L 282.641879 39.730852 
 L 276.32914 39.730852 
 L 276.32914 105.621761 
 L 282.641879 105.621761 
 z
 " clip-path="url(#p5f2f7d79d8)" style="fill: #404080"/>
     <path d="M 288.954618 105.621761 
 L 288.954618 39.730852 
 L 282.659175 39.730852 
 L 282.659175 105.621761 
 L 288.954618 105.621761 
 z
 " clip-path="url(#p5f2f7d79d8)" style="fill: #404080"/>
     <path d="M 333.178381 105.621761 
 L 333.178381 39.730852 
 L 326.865642 39.730852 
 L 326.865642 105.621761 
 L 333.178381 105.621761 
 z
 " clip-path="url(#p5f2f7d79d8)" style="fill: #404080"/>
    </g>
    <g id="patch_3">
     <path d="M 40.25 195.398125 
 L 40.25 32.318125 
 " style="fill: none; stroke: #30363d; stroke-width: 0.8; stroke-linejoin: miter; stroke-linecap: square"/>
    </g>
    <g id="patch_4">
     <path d="M 375.05 195.398125 
 L 375.05 32.318125 
 " style="fill: none; stroke: #30363d; stroke-width: 0.8; stroke-linejoin: miter; stroke-linecap: square"/>
    </g>
    <g id="patch_5">
     <path d="M 40.25 195.398125 
 L 375.05 195.398125 
 " style="fill: none; stroke: #30363d; stroke-width: 0.8; stroke-linejoin: miter; stroke-linecap: square"/>
    </g>
    <g id="patch_6">
     <path d="M 40.25 32.318125 
 L 375.05 32.318125 
 " style="fill: none; stroke: #30363d; stroke-width: 0.8; stroke-linejoin: miter; stroke-linecap: square"/>
    </g>
    <g id="text_8">
     <!-- Anne Fine -->
     <g transform="translate(178.164688 16.318125)scale(0.12 -0.12)">
      <defs>
       <path id="DejaVuSans-6e" d="M 3513 2113 
 L 3513 0 
 L 2938 0 
 L 2938 2094 
 Q 2938 2591 2744 2837 
 Q 2550 3084 2163 3084 
 Q 1697 3084 1428 2787 
 Q 1159 2491 1159 1978 
 L 1159 0 
 L 581 0 
 L 581 3500 
 L 1159 3500 
 L 1159 2956 
 Q 1366 3272 1645 3428 
 Q 1925 3584 2291 3584 
 Q 2894 3584 3203 3211 
 Q 3513 2838 3513 2113 
 z
 " transform="scale(0.015625)"/>
       <path id="DejaVuSans-65" d="M 3597 1894 
 L 3597 1613 
 L 953 1613 
 Q 991 1019 1311 708 
 Q 1631 397 2203 397 
 Q 2534 397 2845 478 
 Q 3156 559 3463 722 
 L 3463 178 
 Q 3153 47 2828 -22 
 Q 2503 -91 2169 -91 
 Q 1331 -91 842 396 
 Q 353 884 353 1716 
 Q 353 2575 817 3079 
 Q 1281 3584 2069 3584 
 Q 2775 3584 3186 3129 
 Q 3597 2675 3597 1894 
 z
 M 3022 2063 
 Q 3016 2534 2758 2815 
 Q 2500 3097 2075 3097 
 Q 1594 3097 1305 2825 
 Q 1016 2553 972 2059 
 L 3022 2063 
 z
 " transform="scale(0.015625)"/>
       <path id="DejaVuSans-20" transform="scale(0.015625)"/>
       <path id="DejaVuSans-46" d="M 628 4666 
 L 3309 4666 
 L 3309 4134 
 L 1259 4134 
 L 1259 2759 
 L 3109 2759 
 L 3109 2228 
 L 1259 2228 
 L 1259 0 
 L 628 0 
 L 628 4666 
 z
 " transform="scale(0.015625)"/>
      </defs>
      <use xlink:href="#DejaVuSans-41"/>
      <use xlink:href="#DejaVuSans-6e" x="68.408203"/>
      <use xlink:href="#DejaVuSans-6e" x="131.787109"/>
      <use xlink:href="#DejaVuSans-65" x="195.166016"/>
      <use xlink:href="#DejaVuSans-20" x="256.689453"/>
      <use xlink:href="#DejaVuSans-46" x="288.476562"/>
      <use xlink:href="#DejaVuSans-69" x="338.746094"/>
      <use xlink:href="#DejaVuSans-6e" x="366.529297"/>
      <use xlink:href="#DejaVuSans-65" x="429.908203"/>
     </g>
    </g>
   </g>
  </g>
  <defs>
   <clipPath id="p5f2f7d79d8">
    <rect x="40.25" y="32.318125" width="334.8" height="163.08"/>
   </clipPath>
  </defs>
 </svg>
